%TF.GenerationSoftware,KiCad,Pcbnew,7.0.2*%
%TF.CreationDate,2023-08-17T14:48:07+02:00*%
%TF.ProjectId,Samsung-VFD-Display,53616d73-756e-4672-9d56-46442d446973,0.1*%
%TF.SameCoordinates,Original*%
%TF.FileFunction,Plated,1,2,PTH,Mixed*%
%TF.FilePolarity,Positive*%
%FSLAX46Y46*%
G04 Gerber Fmt 4.6, Leading zero omitted, Abs format (unit mm)*
G04 Created by KiCad (PCBNEW 7.0.2) date 2023-08-17 14:48:07*
%MOMM*%
%LPD*%
G01*
G04 APERTURE LIST*
%TA.AperFunction,ViaDrill*%
%ADD10C,0.600000*%
%TD*%
%TA.AperFunction,ComponentDrill*%
%ADD11C,0.762000*%
%TD*%
%TA.AperFunction,ComponentDrill*%
%ADD12C,0.800000*%
%TD*%
%TA.AperFunction,ComponentDrill*%
%ADD13C,0.900000*%
%TD*%
G04 aperture for slot hole*
%TA.AperFunction,ComponentDrill*%
%ADD14O,1.000000X3.000000*%
%TD*%
G04 aperture for slot hole*
%TA.AperFunction,ComponentDrill*%
%ADD15O,3.000000X1.000000*%
%TD*%
G04 aperture for slot hole*
%TA.AperFunction,ComponentDrill*%
%ADD16O,1.000000X3.400000*%
%TD*%
%TA.AperFunction,ComponentDrill*%
%ADD17C,1.000000*%
%TD*%
G04 APERTURE END LIST*
D10*
X106273600Y-80426000D03*
X108153200Y-65887600D03*
X118110000Y-67614800D03*
X120142000Y-59639200D03*
X121259600Y-85242400D03*
X122123200Y-60655200D03*
X126500000Y-82000000D03*
X138836400Y-76403200D03*
X138836400Y-79248000D03*
X140665200Y-88138000D03*
X142494000Y-71678800D03*
X146354800Y-89255600D03*
X153009600Y-77876400D03*
X153517600Y-73863200D03*
X158902400Y-67868800D03*
X158953200Y-84480400D03*
X161188400Y-63906400D03*
X161290000Y-70916800D03*
X161290000Y-76657200D03*
X166268400Y-78486000D03*
X166268400Y-78486000D03*
X167248800Y-84363600D03*
X168808400Y-71932800D03*
X174955200Y-78028800D03*
X178206400Y-79552800D03*
X181000400Y-68834000D03*
X184150000Y-86360000D03*
X184200800Y-88442800D03*
X186740800Y-71323200D03*
D11*
%TO.C,D1*%
X100111000Y-63887000D03*
X102111000Y-63887000D03*
X108111000Y-63887000D03*
X110111000Y-63887000D03*
X112111000Y-63887000D03*
X114111000Y-63887000D03*
X116111000Y-63887000D03*
X118111000Y-63887000D03*
X120111000Y-63887000D03*
X122111000Y-63887000D03*
X176111000Y-63887000D03*
X178111000Y-63887000D03*
X180111000Y-63887000D03*
X186111000Y-63887000D03*
X188111000Y-63887000D03*
D12*
%TO.C,U2*%
X156972000Y-63863748D03*
X156972000Y-65863748D03*
X156972000Y-67863748D03*
X156972000Y-69863748D03*
X156972000Y-71863748D03*
X156972000Y-73863748D03*
X156972000Y-75863748D03*
X156972000Y-77863748D03*
X170972000Y-63863748D03*
X170972000Y-65863748D03*
X170972000Y-67863748D03*
X170972000Y-69863748D03*
X170972000Y-71863748D03*
X170972000Y-73863748D03*
X170972000Y-75863748D03*
X170972000Y-77863748D03*
D13*
%TO.C,RV1*%
X132170800Y-81631400D03*
X134670800Y-84131400D03*
X137170800Y-81631400D03*
D14*
%TO.C,J4*%
X97705000Y-80426000D03*
D15*
X100505000Y-85226000D03*
D16*
X103505000Y-80426000D03*
D17*
%TO.C,J1*%
X156413200Y-87528400D03*
X158953200Y-87528400D03*
X161493200Y-87528400D03*
X164033200Y-87528400D03*
X166573200Y-87528400D03*
X169113200Y-87528400D03*
%TO.C,J2*%
X178358800Y-68935600D03*
X178358800Y-71475600D03*
X178358800Y-74015600D03*
X178358800Y-76555600D03*
M02*
