G04 #@! TF.GenerationSoftware,KiCad,Pcbnew,7.0.2*
G04 #@! TF.CreationDate,2023-08-17T14:48:08+02:00*
G04 #@! TF.ProjectId,Samsung-VFD-Display,53616d73-756e-4672-9d56-46442d446973,0.1*
G04 #@! TF.SameCoordinates,Original*
G04 #@! TF.FileFunction,Profile,NP*
%FSLAX46Y46*%
G04 Gerber Fmt 4.6, Leading zero omitted, Abs format (unit mm)*
G04 Created by KiCad (PCBNEW 7.0.2) date 2023-08-17 14:48:08*
%MOMM*%
%LPD*%
G01*
G04 APERTURE LIST*
G04 #@! TA.AperFunction,Profile*
%ADD10C,0.100000*%
G04 #@! TD*
%ADD11C,0.300000*%
G04 #@! TA.AperFunction,ComponentPad*
%ADD12R,1.700000X1.700000*%
G04 #@! TD*
G04 #@! TA.AperFunction,ComponentPad*
%ADD13O,1.700000X1.700000*%
G04 #@! TD*
G04 #@! TA.AperFunction,ComponentPad*
%ADD14C,1.620000*%
G04 #@! TD*
G04 #@! TA.AperFunction,ComponentPad*
%ADD15R,2.000000X4.400000*%
G04 #@! TD*
G04 #@! TA.AperFunction,ComponentPad*
%ADD16O,2.000000X4.000000*%
G04 #@! TD*
G04 #@! TA.AperFunction,ComponentPad*
%ADD17O,4.000000X2.000000*%
G04 #@! TD*
G04 #@! TA.AperFunction,ComponentPad*
%ADD18R,2.500000X1.500000*%
G04 #@! TD*
G04 #@! TA.AperFunction,ComponentPad*
%ADD19O,2.500000X1.500000*%
G04 #@! TD*
G04 #@! TA.AperFunction,ComponentPad*
%ADD20C,1.524000*%
G04 #@! TD*
G04 #@! TA.AperFunction,ViaPad*
%ADD21C,1.200000*%
G04 #@! TD*
G04 #@! TA.AperFunction,Conductor*
%ADD22C,0.500000*%
G04 #@! TD*
G04 #@! TA.AperFunction,Conductor*
%ADD23C,1.000000*%
G04 #@! TD*
G04 #@! TA.AperFunction,Conductor*
%ADD24C,0.250000*%
G04 #@! TD*
G04 #@! TA.AperFunction,Conductor*
%ADD25C,0.320000*%
G04 #@! TD*
%ADD26C,0.350000*%
%ADD27O,1.000000X3.400000*%
%ADD28O,1.000000X3.000000*%
%ADD29O,3.000000X1.000000*%
G04 APERTURE END LIST*
D10*
X194250000Y-93000000D02*
X94250000Y-93000000D01*
X94250000Y-93000000D02*
X94250000Y-57000000D01*
X194250000Y-57000000D02*
X194250000Y-93000000D01*
X94250000Y-57000000D02*
X194250000Y-57000000D01*
D11*
G36*
X122026000Y-92071628D02*
G01*
X121843199Y-92071628D01*
X121685598Y-92019095D01*
X121584991Y-91918486D01*
X121531813Y-91812132D01*
X121468857Y-91560306D01*
X121468857Y-91382949D01*
X121531811Y-91131128D01*
X121584992Y-91024767D01*
X121685598Y-90924161D01*
X121843198Y-90871628D01*
X122026000Y-90871628D01*
X122026000Y-92071628D01*
G37*
G36*
X128944289Y-91416335D02*
G01*
X128981292Y-91453338D01*
X129025999Y-91542752D01*
X129025999Y-91900504D01*
X128981291Y-91989918D01*
X128944287Y-92026922D01*
X128854875Y-92071628D01*
X128639981Y-92071628D01*
X128611714Y-92057494D01*
X128611714Y-91385761D01*
X128639981Y-91371628D01*
X128854874Y-91371628D01*
X128944289Y-91416335D01*
G37*
G36*
X115240285Y-91385762D02*
G01*
X115240285Y-92057494D01*
X115212018Y-92071628D01*
X114997123Y-92071628D01*
X114907708Y-92026920D01*
X114870706Y-91989918D01*
X114825999Y-91900504D01*
X114825999Y-91542753D01*
X114870706Y-91453338D01*
X114907710Y-91416334D01*
X114997123Y-91371628D01*
X115212017Y-91371628D01*
X115240285Y-91385762D01*
G37*
G36*
X113135624Y-91833431D02*
G01*
X113168856Y-91899895D01*
X113168856Y-91971932D01*
X113135624Y-92038396D01*
X113069161Y-92071628D01*
X112782838Y-92071628D01*
X112754571Y-92057494D01*
X112754571Y-91803895D01*
X112764209Y-91805630D01*
X112777301Y-91800200D01*
X113069161Y-91800200D01*
X113135624Y-91833431D01*
G37*
G36*
X136278482Y-91833431D02*
G01*
X136311714Y-91899895D01*
X136311714Y-91971932D01*
X136278482Y-92038396D01*
X136212019Y-92071628D01*
X135925696Y-92071628D01*
X135897429Y-92057494D01*
X135897429Y-91803895D01*
X135907067Y-91805630D01*
X135920159Y-91800200D01*
X136212019Y-91800200D01*
X136278482Y-91833431D01*
G37*
G36*
X118668857Y-92071628D02*
G01*
X118486056Y-92071628D01*
X118328455Y-92019095D01*
X118227848Y-91918486D01*
X118174670Y-91812132D01*
X118111713Y-91560306D01*
X118111714Y-91382949D01*
X118174668Y-91131128D01*
X118227849Y-91024767D01*
X118328455Y-90924161D01*
X118486055Y-90871628D01*
X118668857Y-90871628D01*
X118668857Y-92071628D01*
G37*
G36*
X138840286Y-93069486D02*
G01*
X109990285Y-93069486D01*
X109990285Y-91230600D01*
X111162781Y-91230600D01*
X111520945Y-92233460D01*
X111520370Y-92236443D01*
X111524330Y-92246343D01*
X111523718Y-92256990D01*
X111539056Y-92284169D01*
X111541992Y-92292390D01*
X111543674Y-92294704D01*
X111674940Y-92622868D01*
X111681646Y-92653693D01*
X111706452Y-92678499D01*
X111728136Y-92706090D01*
X111737173Y-92709220D01*
X111770920Y-92742967D01*
X111783809Y-92764667D01*
X111820758Y-92783141D01*
X111857054Y-92802961D01*
X111859978Y-92802751D01*
X111985352Y-92865438D01*
X112049924Y-92877058D01*
X112131291Y-92843311D01*
X112181498Y-92770930D01*
X112184602Y-92682898D01*
X112139618Y-92607161D01*
X111979138Y-92526921D01*
X111946692Y-92494475D01*
X111836351Y-92218623D01*
X112109897Y-91452696D01*
X112449141Y-91452696D01*
X112454571Y-91465788D01*
X112454571Y-91576107D01*
X112453111Y-91617501D01*
X112454571Y-91619959D01*
X112454571Y-92147523D01*
X112453111Y-92188930D01*
X112454571Y-92191388D01*
X112454571Y-92243196D01*
X112473055Y-92306148D01*
X112539628Y-92363833D01*
X112626820Y-92376370D01*
X112675891Y-92353959D01*
X112703384Y-92371628D01*
X112734036Y-92371628D01*
X112764210Y-92377058D01*
X112777302Y-92371628D01*
X113096495Y-92371628D01*
X113132258Y-92375489D01*
X113159672Y-92361781D01*
X113189091Y-92353144D01*
X113198372Y-92342432D01*
X113280331Y-92301453D01*
X113286159Y-92301659D01*
X113319363Y-92281937D01*
X113333801Y-92274719D01*
X113337834Y-92270966D01*
X113361896Y-92256676D01*
X113369458Y-92241551D01*
X113381841Y-92230033D01*
X113382581Y-92227137D01*
X113662621Y-92227137D01*
X113690400Y-92310730D01*
X113758964Y-92366034D01*
X113846543Y-92375489D01*
X113994614Y-92301454D01*
X114000443Y-92301660D01*
X114033647Y-92281937D01*
X114048086Y-92274719D01*
X114052120Y-92270966D01*
X114076180Y-92256676D01*
X114083741Y-92241552D01*
X114096126Y-92230033D01*
X114103060Y-92202915D01*
X114163696Y-92081644D01*
X114183142Y-92051386D01*
X114183142Y-92020735D01*
X114188572Y-91990561D01*
X114183142Y-91977468D01*
X114183142Y-91524123D01*
X114520569Y-91524123D01*
X114525999Y-91537215D01*
X114525999Y-91927838D01*
X114522138Y-91963602D01*
X114535845Y-91991016D01*
X114544483Y-92020434D01*
X114555195Y-92029716D01*
X114604853Y-92129030D01*
X114610218Y-92153692D01*
X114639424Y-92182898D01*
X114667595Y-92213184D01*
X114670435Y-92213910D01*
X114699490Y-92242966D01*
X114712380Y-92264667D01*
X114749338Y-92283146D01*
X114785624Y-92302960D01*
X114788548Y-92302750D01*
X114887407Y-92352180D01*
X114917669Y-92371628D01*
X114948321Y-92371628D01*
X114978495Y-92377058D01*
X114991587Y-92371628D01*
X115239352Y-92371628D01*
X115240285Y-92371728D01*
X115240285Y-92743196D01*
X115258769Y-92806148D01*
X115325342Y-92863833D01*
X115412534Y-92876370D01*
X115492661Y-92839777D01*
X115540285Y-92765672D01*
X115540285Y-92169077D01*
X115546521Y-92144691D01*
X115540284Y-92125925D01*
X115540284Y-91952695D01*
X115877712Y-91952695D01*
X115883142Y-91965787D01*
X115883142Y-91999266D01*
X115879281Y-92035030D01*
X115892988Y-92062445D01*
X115901626Y-92091862D01*
X115912337Y-92101143D01*
X115953316Y-92183101D01*
X115953111Y-92188930D01*
X115972832Y-92222134D01*
X115980052Y-92236573D01*
X115983804Y-92240607D01*
X115998095Y-92264667D01*
X116013218Y-92272228D01*
X116024738Y-92284613D01*
X116051854Y-92291546D01*
X116173122Y-92352180D01*
X116203384Y-92371628D01*
X116234036Y-92371628D01*
X116264210Y-92377058D01*
X116277302Y-92371628D01*
X116525066Y-92371628D01*
X116560829Y-92375489D01*
X116588243Y-92361781D01*
X116617662Y-92353144D01*
X116626943Y-92342432D01*
X116762372Y-92274719D01*
X116796261Y-92243196D01*
X117168857Y-92243196D01*
X117187341Y-92306148D01*
X117253914Y-92363833D01*
X117341106Y-92376370D01*
X117421233Y-92339777D01*
X117468857Y-92265672D01*
X117468857Y-91572422D01*
X117805510Y-91572422D01*
X117811714Y-91597237D01*
X117811714Y-91600339D01*
X117816932Y-91618112D01*
X117881140Y-91874944D01*
X117879281Y-91892173D01*
X117891614Y-91916840D01*
X117892852Y-91921789D01*
X117901225Y-91936061D01*
X117961995Y-92057600D01*
X117967361Y-92082264D01*
X117996585Y-92111489D01*
X118024738Y-92141755D01*
X118027577Y-92142481D01*
X118135652Y-92250557D01*
X118158210Y-92278575D01*
X118187289Y-92288268D01*
X118214196Y-92302960D01*
X118228332Y-92301948D01*
X118396439Y-92357983D01*
X118417670Y-92371628D01*
X118458993Y-92371628D01*
X118500308Y-92373122D01*
X118502829Y-92371628D01*
X118808126Y-92371628D01*
X118841106Y-92376370D01*
X118871412Y-92362529D01*
X118903377Y-92353144D01*
X118910851Y-92344518D01*
X118921233Y-92339777D01*
X118939245Y-92311749D01*
X118961062Y-92286571D01*
X118962686Y-92275273D01*
X118968857Y-92265672D01*
X118968857Y-92232358D01*
X118973599Y-92199379D01*
X118968857Y-92188995D01*
X118968857Y-91672449D01*
X119378401Y-91672449D01*
X119414994Y-91752576D01*
X119489099Y-91800200D01*
X120697568Y-91800200D01*
X120760520Y-91781716D01*
X120818205Y-91715143D01*
X120830742Y-91627951D01*
X120805383Y-91572422D01*
X121162653Y-91572422D01*
X121168857Y-91597237D01*
X121168857Y-91600339D01*
X121174075Y-91618112D01*
X121238283Y-91874944D01*
X121236424Y-91892173D01*
X121248757Y-91916840D01*
X121249995Y-91921789D01*
X121258368Y-91936061D01*
X121319138Y-92057600D01*
X121324504Y-92082264D01*
X121353728Y-92111489D01*
X121381881Y-92141755D01*
X121384720Y-92142481D01*
X121492795Y-92250557D01*
X121515353Y-92278575D01*
X121544432Y-92288268D01*
X121571339Y-92302960D01*
X121585475Y-92301948D01*
X121753582Y-92357983D01*
X121774813Y-92371628D01*
X121816136Y-92371628D01*
X121857451Y-92373122D01*
X121859972Y-92371628D01*
X122165269Y-92371628D01*
X122198249Y-92376370D01*
X122228555Y-92362529D01*
X122260520Y-92353144D01*
X122267994Y-92344518D01*
X122278376Y-92339777D01*
X122296388Y-92311749D01*
X122318205Y-92286571D01*
X122319829Y-92275273D01*
X122326000Y-92265672D01*
X122326000Y-92232358D01*
X122330742Y-92199379D01*
X122326000Y-92188995D01*
X122326000Y-90743877D01*
X122592686Y-90743877D01*
X122629279Y-90824004D01*
X122703384Y-90871628D01*
X123311714Y-90871628D01*
X123311714Y-91285914D01*
X122940146Y-91285914D01*
X122877194Y-91304398D01*
X122819509Y-91370971D01*
X122806972Y-91458163D01*
X122843565Y-91538290D01*
X122917670Y-91585914D01*
X123311714Y-91585914D01*
X123311714Y-92243196D01*
X123330198Y-92306148D01*
X123396771Y-92363833D01*
X123483963Y-92376370D01*
X123564090Y-92339777D01*
X123611714Y-92265672D01*
X123611714Y-91446644D01*
X123616456Y-91413665D01*
X123611714Y-91403281D01*
X123611714Y-90732358D01*
X123612444Y-90727278D01*
X123805483Y-90727278D01*
X124310829Y-92243319D01*
X124310218Y-92260222D01*
X124324489Y-92284300D01*
X124326231Y-92289524D01*
X124335440Y-92302775D01*
X124355133Y-92335999D01*
X124360345Y-92338611D01*
X124363674Y-92343400D01*
X124399357Y-92358161D01*
X124433887Y-92375465D01*
X124439686Y-92374844D01*
X124445072Y-92377072D01*
X124483069Y-92370199D01*
X124521473Y-92366088D01*
X124526013Y-92362432D01*
X124531754Y-92361394D01*
X124560014Y-92335058D01*
X124590088Y-92310846D01*
X124591931Y-92305314D01*
X124596197Y-92301340D01*
X124605729Y-92263922D01*
X124802887Y-91672449D01*
X125306972Y-91672449D01*
X125343565Y-91752576D01*
X125417670Y-91800200D01*
X126626139Y-91800200D01*
X126689091Y-91781716D01*
X126746776Y-91715143D01*
X126759313Y-91627951D01*
X126722720Y-91547824D01*
X126648615Y-91500200D01*
X125440146Y-91500200D01*
X125377194Y-91518684D01*
X125319509Y-91585257D01*
X125306972Y-91672449D01*
X124802887Y-91672449D01*
X124927514Y-91298567D01*
X128305479Y-91298567D01*
X128311714Y-91317328D01*
X128311714Y-92147523D01*
X128310254Y-92188930D01*
X128311714Y-92191388D01*
X128311714Y-92427837D01*
X128307853Y-92463601D01*
X128321560Y-92491015D01*
X128330198Y-92520434D01*
X128340909Y-92529715D01*
X128390567Y-92629031D01*
X128395932Y-92653693D01*
X128425137Y-92682898D01*
X128453309Y-92713184D01*
X128456149Y-92713910D01*
X128485206Y-92742967D01*
X128498095Y-92764667D01*
X128535044Y-92783141D01*
X128571340Y-92802961D01*
X128574264Y-92802751D01*
X128673122Y-92852180D01*
X128703384Y-92871628D01*
X128734036Y-92871628D01*
X128764210Y-92877058D01*
X128777302Y-92871628D01*
X128953638Y-92871628D01*
X128989401Y-92875489D01*
X129016815Y-92861781D01*
X129046234Y-92853144D01*
X129055515Y-92842432D01*
X129190944Y-92774719D01*
X129238984Y-92730033D01*
X129260807Y-92644691D01*
X129233027Y-92561097D01*
X129164463Y-92505794D01*
X129076884Y-92496339D01*
X128926304Y-92571628D01*
X128782838Y-92571628D01*
X128693424Y-92526921D01*
X128656419Y-92489916D01*
X128611714Y-92400503D01*
X128611714Y-92375323D01*
X128621353Y-92377058D01*
X128634445Y-92371628D01*
X128882209Y-92371628D01*
X128917972Y-92375489D01*
X128945386Y-92361781D01*
X128974805Y-92353144D01*
X128984086Y-92342432D01*
X129083402Y-92292774D01*
X129108064Y-92287410D01*
X129137275Y-92258198D01*
X129167555Y-92230033D01*
X129168281Y-92227192D01*
X129197338Y-92198135D01*
X129219038Y-92185247D01*
X129237512Y-92148297D01*
X129257332Y-92112002D01*
X129257122Y-92109077D01*
X129306551Y-92010219D01*
X129325999Y-91979958D01*
X129325999Y-91949306D01*
X129331429Y-91919132D01*
X129325999Y-91906039D01*
X129325999Y-91515418D01*
X129329860Y-91479655D01*
X129316380Y-91452696D01*
X129663427Y-91452696D01*
X129668857Y-91465788D01*
X129668857Y-92243196D01*
X129687341Y-92306148D01*
X129753914Y-92363833D01*
X129841106Y-92376370D01*
X129921233Y-92339777D01*
X129968857Y-92265672D01*
X129968857Y-91471323D01*
X130002088Y-91404859D01*
X130068552Y-91371628D01*
X130212017Y-91371628D01*
X130301432Y-91416335D01*
X130311714Y-91426617D01*
X130311714Y-92243196D01*
X130330198Y-92306148D01*
X130396771Y-92363833D01*
X130483963Y-92376370D01*
X130564090Y-92339777D01*
X130611714Y-92265672D01*
X130611714Y-92067617D01*
X131020065Y-92067617D01*
X131025999Y-92094898D01*
X131026000Y-92243196D01*
X131044484Y-92306148D01*
X131111057Y-92363833D01*
X131198249Y-92376370D01*
X131278376Y-92339777D01*
X131281487Y-92334934D01*
X131315979Y-92352180D01*
X131346241Y-92371628D01*
X131376893Y-92371628D01*
X131407067Y-92377058D01*
X131420159Y-92371628D01*
X131596495Y-92371628D01*
X131632258Y-92375489D01*
X131659672Y-92361781D01*
X131689091Y-92353144D01*
X131698372Y-92342432D01*
X131780329Y-92301454D01*
X131786158Y-92301660D01*
X131819362Y-92281937D01*
X131833801Y-92274719D01*
X131837835Y-92270966D01*
X131861895Y-92256676D01*
X131869456Y-92241552D01*
X131881841Y-92230033D01*
X131888775Y-92202915D01*
X131949411Y-92081644D01*
X131968857Y-92051386D01*
X131968856Y-92020735D01*
X131974287Y-91990561D01*
X131968857Y-91977468D01*
X131968857Y-91952695D01*
X132306284Y-91952695D01*
X132311714Y-91965787D01*
X132311714Y-91999266D01*
X132307853Y-92035030D01*
X132321560Y-92062445D01*
X132330198Y-92091862D01*
X132340909Y-92101143D01*
X132381888Y-92183101D01*
X132381683Y-92188930D01*
X132401404Y-92222134D01*
X132408624Y-92236573D01*
X132412376Y-92240607D01*
X132426667Y-92264667D01*
X132441790Y-92272228D01*
X132453310Y-92284613D01*
X132480426Y-92291546D01*
X132601694Y-92352180D01*
X132631956Y-92371628D01*
X132662608Y-92371628D01*
X132692782Y-92377058D01*
X132705874Y-92371628D01*
X132953638Y-92371628D01*
X132989401Y-92375489D01*
X133016815Y-92361781D01*
X133046234Y-92353144D01*
X133055515Y-92342432D01*
X133190944Y-92274719D01*
X133238984Y-92230033D01*
X133260807Y-92144691D01*
X133233027Y-92061097D01*
X133164463Y-92005794D01*
X133076884Y-91996339D01*
X132926304Y-92071628D01*
X132711410Y-92071628D01*
X132644946Y-92038396D01*
X132611714Y-91971931D01*
X132611714Y-91971325D01*
X132644946Y-91904859D01*
X132711410Y-91871628D01*
X132882210Y-91871628D01*
X132917973Y-91875489D01*
X132945387Y-91861781D01*
X132974806Y-91853144D01*
X132984087Y-91842432D01*
X133066046Y-91801453D01*
X133071874Y-91801659D01*
X133105078Y-91781937D01*
X133119516Y-91774719D01*
X133123549Y-91770966D01*
X133147611Y-91756676D01*
X133155173Y-91741551D01*
X133167556Y-91730033D01*
X133174489Y-91702917D01*
X133235124Y-91581645D01*
X133254571Y-91551386D01*
X133254571Y-91520734D01*
X133260001Y-91490560D01*
X133254571Y-91477468D01*
X133254570Y-91452695D01*
X133591998Y-91452695D01*
X133597428Y-91465787D01*
X133597428Y-92243196D01*
X133615912Y-92306148D01*
X133682485Y-92363833D01*
X133769677Y-92376370D01*
X133849804Y-92339777D01*
X133897428Y-92265672D01*
X133897428Y-91471324D01*
X133930660Y-91404859D01*
X133997124Y-91371628D01*
X134140589Y-91371628D01*
X134207054Y-91404860D01*
X134240286Y-91471323D01*
X134240286Y-92243196D01*
X134258770Y-92306148D01*
X134325343Y-92363833D01*
X134412535Y-92376370D01*
X134492662Y-92339777D01*
X134540286Y-92265672D01*
X134540286Y-91471323D01*
X134573517Y-91404859D01*
X134639981Y-91371628D01*
X134783446Y-91371628D01*
X134872861Y-91416335D01*
X134883143Y-91426617D01*
X134883143Y-92243196D01*
X134901627Y-92306148D01*
X134968200Y-92363833D01*
X135055392Y-92376370D01*
X135135519Y-92339777D01*
X135183143Y-92265672D01*
X135183143Y-91452696D01*
X135591999Y-91452696D01*
X135597429Y-91465788D01*
X135597429Y-91576107D01*
X135595969Y-91617501D01*
X135597429Y-91619959D01*
X135597429Y-92147523D01*
X135595969Y-92188930D01*
X135597429Y-92191388D01*
X135597429Y-92243196D01*
X135615913Y-92306148D01*
X135682486Y-92363833D01*
X135769678Y-92376370D01*
X135818749Y-92353959D01*
X135846242Y-92371628D01*
X135876894Y-92371628D01*
X135907068Y-92377058D01*
X135920160Y-92371628D01*
X136239353Y-92371628D01*
X136275116Y-92375489D01*
X136302530Y-92361781D01*
X136331949Y-92353144D01*
X136341230Y-92342432D01*
X136423189Y-92301453D01*
X136429017Y-92301659D01*
X136462221Y-92281937D01*
X136476659Y-92274719D01*
X136480692Y-92270966D01*
X136504754Y-92256676D01*
X136512316Y-92241551D01*
X136524699Y-92230033D01*
X136531632Y-92202917D01*
X136592267Y-92081645D01*
X136611714Y-92051386D01*
X136611714Y-92020734D01*
X136617144Y-91990560D01*
X136611714Y-91977468D01*
X136611714Y-91872561D01*
X136615575Y-91836798D01*
X136601867Y-91809383D01*
X136593230Y-91779965D01*
X136582518Y-91770683D01*
X136541540Y-91688726D01*
X136541746Y-91682898D01*
X136522023Y-91649693D01*
X136514805Y-91635255D01*
X136511052Y-91631220D01*
X136496762Y-91607161D01*
X136481638Y-91599599D01*
X136470119Y-91587215D01*
X136443002Y-91580281D01*
X136321731Y-91519645D01*
X136291473Y-91500200D01*
X136260822Y-91500200D01*
X136230647Y-91494770D01*
X136217555Y-91500200D01*
X135925696Y-91500200D01*
X135897429Y-91486066D01*
X135897429Y-91471323D01*
X135930660Y-91404859D01*
X135997124Y-91371628D01*
X136212018Y-91371628D01*
X136342494Y-91436866D01*
X136407067Y-91448487D01*
X136488434Y-91414740D01*
X136538641Y-91342360D01*
X136541746Y-91254327D01*
X136496762Y-91178590D01*
X136321738Y-91091078D01*
X136291473Y-91071628D01*
X136260820Y-91071628D01*
X136230648Y-91066198D01*
X136217556Y-91071628D01*
X135969789Y-91071628D01*
X135934025Y-91067767D01*
X135906609Y-91081475D01*
X135877194Y-91090112D01*
X135867912Y-91100823D01*
X135785956Y-91141802D01*
X135780127Y-91141597D01*
X135746913Y-91161324D01*
X135732484Y-91168539D01*
X135728452Y-91172289D01*
X135704390Y-91186581D01*
X135696828Y-91201704D01*
X135684444Y-91213224D01*
X135677510Y-91240339D01*
X135616874Y-91361611D01*
X135597429Y-91391870D01*
X135597429Y-91422521D01*
X135591999Y-91452696D01*
X135183143Y-91452696D01*
X135183143Y-91391549D01*
X135189078Y-91375637D01*
X135183143Y-91348356D01*
X135183143Y-91200060D01*
X135164659Y-91137108D01*
X135098086Y-91079423D01*
X135010894Y-91066886D01*
X134930767Y-91103479D01*
X134927654Y-91108322D01*
X134893166Y-91091078D01*
X134862901Y-91071628D01*
X134832248Y-91071628D01*
X134802076Y-91066198D01*
X134788984Y-91071628D01*
X134612646Y-91071628D01*
X134576882Y-91067767D01*
X134549466Y-91081475D01*
X134520051Y-91090112D01*
X134510769Y-91100823D01*
X134428813Y-91141802D01*
X134422984Y-91141597D01*
X134395609Y-91157856D01*
X134371574Y-91151710D01*
X134250309Y-91091078D01*
X134220044Y-91071628D01*
X134189391Y-91071628D01*
X134159219Y-91066198D01*
X134146127Y-91071628D01*
X133969789Y-91071628D01*
X133934025Y-91067767D01*
X133906609Y-91081475D01*
X133877194Y-91090112D01*
X133867912Y-91100823D01*
X133785956Y-91141802D01*
X133780127Y-91141597D01*
X133746913Y-91161324D01*
X133732484Y-91168539D01*
X133728452Y-91172289D01*
X133704390Y-91186581D01*
X133696828Y-91201704D01*
X133684444Y-91213224D01*
X133677510Y-91240339D01*
X133616878Y-91361604D01*
X133597428Y-91391870D01*
X133597427Y-91422523D01*
X133591998Y-91452695D01*
X133254570Y-91452695D01*
X133254570Y-91443990D01*
X133258432Y-91408227D01*
X133244724Y-91380812D01*
X133236087Y-91351394D01*
X133225375Y-91342112D01*
X133184397Y-91260155D01*
X133184603Y-91254327D01*
X133164880Y-91221122D01*
X133157662Y-91206684D01*
X133153909Y-91202649D01*
X133139619Y-91178590D01*
X133124495Y-91171028D01*
X133112976Y-91158644D01*
X133085859Y-91151710D01*
X132964595Y-91091078D01*
X132934330Y-91071628D01*
X132903677Y-91071628D01*
X132873505Y-91066198D01*
X132860413Y-91071628D01*
X132684075Y-91071628D01*
X132648311Y-91067767D01*
X132620895Y-91081475D01*
X132591480Y-91090112D01*
X132582198Y-91100823D01*
X132446770Y-91168539D01*
X132398730Y-91213224D01*
X132376908Y-91298567D01*
X132404688Y-91382160D01*
X132473252Y-91437463D01*
X132560831Y-91446918D01*
X132711410Y-91371628D01*
X132854875Y-91371628D01*
X132921339Y-91404860D01*
X132954571Y-91471324D01*
X132954571Y-91471932D01*
X132921339Y-91538396D01*
X132854876Y-91571628D01*
X132684075Y-91571628D01*
X132648311Y-91567767D01*
X132620895Y-91581475D01*
X132591480Y-91590112D01*
X132582198Y-91600823D01*
X132500242Y-91641802D01*
X132494413Y-91641597D01*
X132461199Y-91661324D01*
X132446770Y-91668539D01*
X132442738Y-91672289D01*
X132418676Y-91686581D01*
X132411114Y-91701704D01*
X132398730Y-91713224D01*
X132391796Y-91740339D01*
X132331164Y-91861604D01*
X132311714Y-91891870D01*
X132311714Y-91922523D01*
X132306284Y-91952695D01*
X131968857Y-91952695D01*
X131968857Y-91200060D01*
X131950373Y-91137108D01*
X131883800Y-91079423D01*
X131796608Y-91066886D01*
X131716481Y-91103479D01*
X131668857Y-91177584D01*
X131668857Y-91971931D01*
X131635624Y-92038396D01*
X131569161Y-92071628D01*
X131425695Y-92071628D01*
X131336280Y-92026920D01*
X131326000Y-92016640D01*
X131326000Y-91200060D01*
X131307516Y-91137108D01*
X131240943Y-91079423D01*
X131153751Y-91066886D01*
X131073624Y-91103479D01*
X131026000Y-91177584D01*
X131026000Y-92051704D01*
X131020065Y-92067617D01*
X130611714Y-92067617D01*
X130611714Y-91391549D01*
X130617649Y-91375637D01*
X130611714Y-91348356D01*
X130611714Y-91200060D01*
X130593230Y-91137108D01*
X130526657Y-91079423D01*
X130439465Y-91066886D01*
X130359338Y-91103479D01*
X130356225Y-91108322D01*
X130321737Y-91091078D01*
X130291472Y-91071628D01*
X130260819Y-91071628D01*
X130230647Y-91066198D01*
X130217555Y-91071628D01*
X130041217Y-91071628D01*
X130005453Y-91067767D01*
X129978037Y-91081475D01*
X129948622Y-91090112D01*
X129939340Y-91100823D01*
X129857384Y-91141802D01*
X129851555Y-91141597D01*
X129818341Y-91161324D01*
X129803912Y-91168539D01*
X129799880Y-91172289D01*
X129775818Y-91186581D01*
X129768256Y-91201704D01*
X129755872Y-91213224D01*
X129748938Y-91240339D01*
X129688302Y-91361611D01*
X129668857Y-91391870D01*
X129668856Y-91422521D01*
X129663427Y-91452696D01*
X129316380Y-91452696D01*
X129316152Y-91452240D01*
X129307515Y-91422822D01*
X129296803Y-91413540D01*
X129247145Y-91314222D01*
X129241780Y-91289562D01*
X129212572Y-91260354D01*
X129184404Y-91230072D01*
X129181563Y-91229345D01*
X129152505Y-91200288D01*
X129139618Y-91178590D01*
X129102668Y-91160115D01*
X129066372Y-91140296D01*
X129063448Y-91140505D01*
X128964594Y-91091078D01*
X128934329Y-91071628D01*
X128903676Y-91071628D01*
X128873504Y-91066198D01*
X128860412Y-91071628D01*
X128612646Y-91071628D01*
X128576882Y-91067767D01*
X128549466Y-91081475D01*
X128534198Y-91085957D01*
X128526657Y-91079423D01*
X128439465Y-91066886D01*
X128359338Y-91103479D01*
X128311714Y-91177584D01*
X128311714Y-91274182D01*
X128305479Y-91298567D01*
X124927514Y-91298567D01*
X125101564Y-90776416D01*
X136877698Y-90776416D01*
X136893377Y-90863098D01*
X136953430Y-90927542D01*
X137038793Y-90949287D01*
X137271769Y-90871628D01*
X137569160Y-90871628D01*
X137658575Y-90916335D01*
X137695578Y-90953338D01*
X137740285Y-91042752D01*
X137740285Y-91114790D01*
X137695577Y-91204204D01*
X137658575Y-91241206D01*
X137552218Y-91294385D01*
X137308396Y-91355341D01*
X137291168Y-91353481D01*
X137266499Y-91365815D01*
X137261553Y-91367052D01*
X137247283Y-91375423D01*
X137125740Y-91436195D01*
X137101078Y-91441561D01*
X137071857Y-91470781D01*
X137041587Y-91498938D01*
X137040860Y-91501778D01*
X137011803Y-91530835D01*
X136990104Y-91543724D01*
X136971628Y-91580675D01*
X136951810Y-91616969D01*
X136952019Y-91619893D01*
X136902592Y-91718747D01*
X136883142Y-91749013D01*
X136883142Y-91779666D01*
X136877712Y-91809838D01*
X136883142Y-91822930D01*
X136883142Y-91927838D01*
X136879281Y-91963602D01*
X136892988Y-91991016D01*
X136901626Y-92020434D01*
X136912338Y-92029716D01*
X136961995Y-92129029D01*
X136967361Y-92153693D01*
X136996581Y-92182913D01*
X137024738Y-92213184D01*
X137027578Y-92213910D01*
X137056635Y-92242967D01*
X137069524Y-92264667D01*
X137106473Y-92283141D01*
X137142769Y-92302961D01*
X137145693Y-92302751D01*
X137244551Y-92352180D01*
X137274813Y-92371628D01*
X137305465Y-92371628D01*
X137335639Y-92377058D01*
X137348731Y-92371628D01*
X137657195Y-92371628D01*
X137681650Y-92377858D01*
X137720837Y-92364795D01*
X137760520Y-92353144D01*
X137762439Y-92350928D01*
X137958180Y-92285682D01*
X138012056Y-92248240D01*
X138045729Y-92166841D01*
X138030050Y-92080159D01*
X137969997Y-92015716D01*
X137884635Y-91993970D01*
X137651659Y-92071628D01*
X137354267Y-92071628D01*
X137264853Y-92026921D01*
X137227849Y-91989917D01*
X137183142Y-91900504D01*
X137183142Y-91828467D01*
X137227848Y-91739054D01*
X137264854Y-91702048D01*
X137371208Y-91648870D01*
X137615030Y-91587915D01*
X137632259Y-91589775D01*
X137656926Y-91577441D01*
X137661875Y-91576204D01*
X137676147Y-91567830D01*
X137797687Y-91507059D01*
X137822349Y-91501695D01*
X137851563Y-91472480D01*
X137881841Y-91444318D01*
X137882567Y-91441477D01*
X137911623Y-91412422D01*
X137933324Y-91399533D01*
X137951803Y-91362574D01*
X137971617Y-91326289D01*
X137971407Y-91323364D01*
X138020837Y-91224505D01*
X138040285Y-91194244D01*
X138040285Y-91163592D01*
X138045715Y-91133418D01*
X138040285Y-91120325D01*
X138040285Y-91015418D01*
X138044146Y-90979655D01*
X138030438Y-90952240D01*
X138021801Y-90922822D01*
X138011089Y-90913540D01*
X137961431Y-90814222D01*
X137956066Y-90789562D01*
X137926858Y-90760354D01*
X137898690Y-90730072D01*
X137895849Y-90729345D01*
X137866791Y-90700288D01*
X137853904Y-90678590D01*
X137816954Y-90660115D01*
X137780658Y-90640296D01*
X137777734Y-90640505D01*
X137678880Y-90591078D01*
X137648615Y-90571628D01*
X137617962Y-90571628D01*
X137587790Y-90566198D01*
X137574698Y-90571628D01*
X137266232Y-90571628D01*
X137241777Y-90565398D01*
X137202584Y-90578462D01*
X137162908Y-90590112D01*
X137160988Y-90592327D01*
X136965246Y-90657575D01*
X136911370Y-90695018D01*
X136877698Y-90776416D01*
X125101564Y-90776416D01*
X125110836Y-90748601D01*
X125113208Y-90683034D01*
X125068293Y-90607257D01*
X124989540Y-90567791D01*
X124901953Y-90577168D01*
X124833338Y-90632410D01*
X124461712Y-91747286D01*
X124097195Y-90653733D01*
X124059752Y-90599856D01*
X123978354Y-90566184D01*
X123891672Y-90581863D01*
X123827229Y-90641916D01*
X123805483Y-90727278D01*
X123612444Y-90727278D01*
X123616456Y-90699379D01*
X123602615Y-90669072D01*
X123593230Y-90637108D01*
X123584604Y-90629633D01*
X123579863Y-90619252D01*
X123551835Y-90601239D01*
X123526657Y-90579423D01*
X123515359Y-90577798D01*
X123505758Y-90571628D01*
X123472445Y-90571628D01*
X123439465Y-90566886D01*
X123429082Y-90571628D01*
X122725860Y-90571628D01*
X122662908Y-90590112D01*
X122605223Y-90656685D01*
X122592686Y-90743877D01*
X122326000Y-90743877D01*
X122326000Y-90732358D01*
X122330742Y-90699379D01*
X122316901Y-90669072D01*
X122307516Y-90637108D01*
X122298890Y-90629633D01*
X122294149Y-90619252D01*
X122266121Y-90601239D01*
X122240943Y-90579423D01*
X122229645Y-90577798D01*
X122220044Y-90571628D01*
X122186731Y-90571628D01*
X122153751Y-90566886D01*
X122143368Y-90571628D01*
X121837661Y-90571628D01*
X121813206Y-90565398D01*
X121774013Y-90578462D01*
X121734337Y-90590112D01*
X121732417Y-90592327D01*
X121564798Y-90648200D01*
X121529649Y-90655847D01*
X121507974Y-90677521D01*
X121482799Y-90695018D01*
X121477381Y-90708114D01*
X121368946Y-90816549D01*
X121347247Y-90829438D01*
X121328771Y-90866389D01*
X121308953Y-90902683D01*
X121309162Y-90905607D01*
X121268070Y-90987791D01*
X121255446Y-90999662D01*
X121248757Y-91026417D01*
X121246476Y-91030980D01*
X121243544Y-91047267D01*
X121179323Y-91304154D01*
X121168857Y-91320441D01*
X121168857Y-91346020D01*
X121168105Y-91349029D01*
X121168857Y-91367534D01*
X121168857Y-91554083D01*
X121162653Y-91572422D01*
X120805383Y-91572422D01*
X120794149Y-91547824D01*
X120720044Y-91500200D01*
X119511575Y-91500200D01*
X119448623Y-91518684D01*
X119390938Y-91585257D01*
X119378401Y-91672449D01*
X118968857Y-91672449D01*
X118968857Y-90732358D01*
X118973599Y-90699379D01*
X118959758Y-90669072D01*
X118950373Y-90637108D01*
X118941747Y-90629633D01*
X118937006Y-90619252D01*
X118908978Y-90601239D01*
X118883800Y-90579423D01*
X118872502Y-90577798D01*
X118862901Y-90571628D01*
X118829588Y-90571628D01*
X118796608Y-90566886D01*
X118786225Y-90571628D01*
X118480518Y-90571628D01*
X118456063Y-90565398D01*
X118416870Y-90578462D01*
X118377194Y-90590112D01*
X118375274Y-90592327D01*
X118207655Y-90648200D01*
X118172506Y-90655847D01*
X118150831Y-90677521D01*
X118125656Y-90695018D01*
X118120238Y-90708114D01*
X118011803Y-90816549D01*
X117990104Y-90829438D01*
X117971628Y-90866389D01*
X117951810Y-90902683D01*
X117952019Y-90905607D01*
X117910927Y-90987791D01*
X117898303Y-90999662D01*
X117891614Y-91026417D01*
X117889333Y-91030980D01*
X117886401Y-91047267D01*
X117822180Y-91304154D01*
X117811714Y-91320441D01*
X117811714Y-91346020D01*
X117810962Y-91349029D01*
X117811714Y-91367534D01*
X117811714Y-91554083D01*
X117805510Y-91572422D01*
X117468857Y-91572422D01*
X117468857Y-91200060D01*
X117450373Y-91137108D01*
X117383800Y-91079423D01*
X117296608Y-91066886D01*
X117216481Y-91103479D01*
X117168857Y-91177584D01*
X117168857Y-92243196D01*
X116796261Y-92243196D01*
X116810412Y-92230033D01*
X116832235Y-92144691D01*
X116804455Y-92061097D01*
X116735891Y-92005794D01*
X116648312Y-91996339D01*
X116497732Y-92071628D01*
X116282838Y-92071628D01*
X116216374Y-92038396D01*
X116183142Y-91971931D01*
X116183142Y-91971325D01*
X116216374Y-91904859D01*
X116282838Y-91871628D01*
X116453638Y-91871628D01*
X116489401Y-91875489D01*
X116516815Y-91861781D01*
X116546234Y-91853144D01*
X116555515Y-91842432D01*
X116637474Y-91801453D01*
X116643302Y-91801659D01*
X116676506Y-91781937D01*
X116690944Y-91774719D01*
X116694977Y-91770966D01*
X116719039Y-91756676D01*
X116726601Y-91741551D01*
X116738984Y-91730033D01*
X116745917Y-91702917D01*
X116806552Y-91581645D01*
X116825999Y-91551386D01*
X116825999Y-91520734D01*
X116831429Y-91490560D01*
X116825999Y-91477468D01*
X116825998Y-91443990D01*
X116829860Y-91408227D01*
X116816152Y-91380812D01*
X116807515Y-91351394D01*
X116796803Y-91342112D01*
X116755825Y-91260155D01*
X116756031Y-91254327D01*
X116736308Y-91221122D01*
X116729090Y-91206684D01*
X116725337Y-91202649D01*
X116711047Y-91178590D01*
X116695923Y-91171028D01*
X116684404Y-91158644D01*
X116657287Y-91151710D01*
X116536023Y-91091078D01*
X116505758Y-91071628D01*
X116475105Y-91071628D01*
X116444933Y-91066198D01*
X116431841Y-91071628D01*
X116255503Y-91071628D01*
X116219739Y-91067767D01*
X116192323Y-91081475D01*
X116162908Y-91090112D01*
X116153626Y-91100823D01*
X116018198Y-91168539D01*
X115970158Y-91213224D01*
X115948336Y-91298567D01*
X115976116Y-91382160D01*
X116044680Y-91437463D01*
X116132259Y-91446918D01*
X116282838Y-91371628D01*
X116426303Y-91371628D01*
X116492767Y-91404860D01*
X116525999Y-91471324D01*
X116525999Y-91471932D01*
X116492767Y-91538396D01*
X116426304Y-91571628D01*
X116255503Y-91571628D01*
X116219739Y-91567767D01*
X116192323Y-91581475D01*
X116162908Y-91590112D01*
X116153626Y-91600823D01*
X116071670Y-91641802D01*
X116065841Y-91641597D01*
X116032627Y-91661324D01*
X116018198Y-91668539D01*
X116014166Y-91672289D01*
X115990104Y-91686581D01*
X115982542Y-91701704D01*
X115970158Y-91713224D01*
X115963224Y-91740339D01*
X115902592Y-91861604D01*
X115883142Y-91891870D01*
X115883142Y-91922523D01*
X115877712Y-91952695D01*
X115540284Y-91952695D01*
X115540285Y-91295720D01*
X115541745Y-91254327D01*
X115540285Y-91251868D01*
X115540285Y-91200060D01*
X115521801Y-91137108D01*
X115455228Y-91079423D01*
X115368036Y-91066886D01*
X115318964Y-91089296D01*
X115291472Y-91071628D01*
X115260819Y-91071628D01*
X115230647Y-91066198D01*
X115217555Y-91071628D01*
X114969788Y-91071628D01*
X114934024Y-91067767D01*
X114906608Y-91081475D01*
X114877193Y-91090112D01*
X114867911Y-91100823D01*
X114768596Y-91150481D01*
X114743933Y-91155847D01*
X114714702Y-91185077D01*
X114684443Y-91213224D01*
X114683716Y-91216063D01*
X114654659Y-91245121D01*
X114632961Y-91258009D01*
X114614485Y-91294960D01*
X114594667Y-91331254D01*
X114594876Y-91334178D01*
X114545449Y-91433032D01*
X114525999Y-91463298D01*
X114525999Y-91493951D01*
X114520569Y-91524123D01*
X114183142Y-91524123D01*
X114183142Y-90781905D01*
X117091493Y-90781905D01*
X117098574Y-90814457D01*
X117100952Y-90847689D01*
X117107792Y-90856827D01*
X117110219Y-90867980D01*
X117133771Y-90891532D01*
X117153741Y-90918209D01*
X117164438Y-90922199D01*
X117185718Y-90943477D01*
X117187341Y-90949005D01*
X117208438Y-90967286D01*
X117225170Y-90989637D01*
X117241083Y-90995572D01*
X117253914Y-91006690D01*
X117270721Y-91009106D01*
X117285627Y-91017246D01*
X117297010Y-91016431D01*
X117307704Y-91020420D01*
X117324297Y-91016810D01*
X117341106Y-91019227D01*
X117356555Y-91012171D01*
X117373490Y-91010960D01*
X117382625Y-91004121D01*
X117393779Y-91001695D01*
X117405785Y-90989688D01*
X117421233Y-90982634D01*
X117430414Y-90968347D01*
X117444009Y-90958171D01*
X117447997Y-90947476D01*
X117488764Y-90906709D01*
X117515436Y-90886744D01*
X117527079Y-90855527D01*
X117543045Y-90826289D01*
X117542230Y-90814906D01*
X117546220Y-90804211D01*
X117539136Y-90771650D01*
X117536760Y-90738425D01*
X117529921Y-90729289D01*
X117527495Y-90718136D01*
X117503936Y-90694576D01*
X117483971Y-90667906D01*
X117473277Y-90663917D01*
X117451996Y-90642635D01*
X117450373Y-90637108D01*
X117429275Y-90618827D01*
X117412544Y-90596476D01*
X117396630Y-90590540D01*
X117383800Y-90579423D01*
X117366992Y-90577006D01*
X117352089Y-90568868D01*
X117340705Y-90569682D01*
X117330010Y-90565693D01*
X117313416Y-90569302D01*
X117296608Y-90566886D01*
X117281160Y-90573940D01*
X117264226Y-90575152D01*
X117255089Y-90581991D01*
X117243935Y-90584418D01*
X117231928Y-90596424D01*
X117216481Y-90603479D01*
X117207301Y-90617763D01*
X117193706Y-90627940D01*
X117189716Y-90638636D01*
X117148949Y-90679403D01*
X117122276Y-90699371D01*
X117110633Y-90730586D01*
X117094667Y-90759826D01*
X117095481Y-90771211D01*
X117091493Y-90781905D01*
X114183142Y-90781905D01*
X114183142Y-90700060D01*
X114164658Y-90637108D01*
X114098085Y-90579423D01*
X114010893Y-90566886D01*
X113930766Y-90603479D01*
X113883142Y-90677584D01*
X113883142Y-91971931D01*
X113849909Y-92038396D01*
X113732483Y-92097109D01*
X113684443Y-92141795D01*
X113662621Y-92227137D01*
X113382581Y-92227137D01*
X113388774Y-92202917D01*
X113449409Y-92081645D01*
X113468856Y-92051386D01*
X113468856Y-92020734D01*
X113474286Y-91990560D01*
X113468856Y-91977468D01*
X113468856Y-91872561D01*
X113472717Y-91836798D01*
X113459009Y-91809383D01*
X113450372Y-91779965D01*
X113439660Y-91770683D01*
X113398682Y-91688726D01*
X113398888Y-91682898D01*
X113379165Y-91649693D01*
X113371947Y-91635255D01*
X113368194Y-91631220D01*
X113353904Y-91607161D01*
X113338780Y-91599599D01*
X113327261Y-91587215D01*
X113300144Y-91580281D01*
X113178873Y-91519645D01*
X113148615Y-91500200D01*
X113117964Y-91500200D01*
X113087789Y-91494770D01*
X113074697Y-91500200D01*
X112782838Y-91500200D01*
X112754571Y-91486066D01*
X112754571Y-91471323D01*
X112787802Y-91404859D01*
X112854266Y-91371628D01*
X113069160Y-91371628D01*
X113199636Y-91436866D01*
X113264209Y-91448487D01*
X113345576Y-91414740D01*
X113395783Y-91342360D01*
X113398888Y-91254327D01*
X113353904Y-91178590D01*
X113178880Y-91091078D01*
X113148615Y-91071628D01*
X113117962Y-91071628D01*
X113087790Y-91066198D01*
X113074698Y-91071628D01*
X112826931Y-91071628D01*
X112791167Y-91067767D01*
X112763751Y-91081475D01*
X112734336Y-91090112D01*
X112725054Y-91100823D01*
X112643098Y-91141802D01*
X112637269Y-91141597D01*
X112604055Y-91161324D01*
X112589626Y-91168539D01*
X112585594Y-91172289D01*
X112561532Y-91186581D01*
X112553970Y-91201704D01*
X112541586Y-91213224D01*
X112534652Y-91240339D01*
X112474016Y-91361611D01*
X112454571Y-91391870D01*
X112454571Y-91422521D01*
X112449141Y-91452696D01*
X112109897Y-91452696D01*
X112181657Y-91251767D01*
X112185423Y-91186266D01*
X112142130Y-91109550D01*
X112064235Y-91068418D01*
X111976468Y-91075929D01*
X111906694Y-91129700D01*
X111675999Y-91775646D01*
X111452863Y-91150866D01*
X111414283Y-91097798D01*
X111332187Y-91065865D01*
X111245858Y-91083384D01*
X111182706Y-91144795D01*
X111162781Y-91230600D01*
X109990285Y-91230600D01*
X109990285Y-89490914D01*
X138840286Y-89490914D01*
X138840286Y-93069486D01*
G37*
G36*
X99562233Y-73585535D02*
G01*
X99599236Y-73622538D01*
X99643943Y-73711952D01*
X99643943Y-74069704D01*
X99599235Y-74159118D01*
X99562231Y-74196122D01*
X99472819Y-74240828D01*
X99329353Y-74240828D01*
X99239938Y-74196120D01*
X99202936Y-74159118D01*
X99158229Y-74069704D01*
X99158229Y-73711952D01*
X99202936Y-73622539D01*
X99239940Y-73585534D01*
X99329353Y-73540828D01*
X99472818Y-73540828D01*
X99562233Y-73585535D01*
G37*
G36*
X104601086Y-75238686D02*
G01*
X94322515Y-75238686D01*
X94322515Y-73399800D01*
X95495011Y-73399800D01*
X95853175Y-74402660D01*
X95852600Y-74405643D01*
X95856560Y-74415543D01*
X95855948Y-74426190D01*
X95871286Y-74453369D01*
X95874222Y-74461590D01*
X95875904Y-74463904D01*
X96007170Y-74792068D01*
X96013876Y-74822893D01*
X96038682Y-74847699D01*
X96060366Y-74875290D01*
X96069403Y-74878420D01*
X96103150Y-74912167D01*
X96116039Y-74933867D01*
X96152988Y-74952341D01*
X96189284Y-74972161D01*
X96192208Y-74971951D01*
X96317582Y-75034638D01*
X96382154Y-75046258D01*
X96463521Y-75012511D01*
X96513728Y-74940130D01*
X96516832Y-74852098D01*
X96471848Y-74776361D01*
X96311368Y-74696121D01*
X96278922Y-74663675D01*
X96171987Y-74396337D01*
X96637708Y-74396337D01*
X96665487Y-74479930D01*
X96734051Y-74535234D01*
X96821630Y-74544689D01*
X96969701Y-74470654D01*
X96975530Y-74470860D01*
X97008734Y-74451137D01*
X97023173Y-74443919D01*
X97027207Y-74440166D01*
X97051267Y-74425876D01*
X97058828Y-74410752D01*
X97071213Y-74399233D01*
X97078147Y-74372115D01*
X97138783Y-74250844D01*
X97158229Y-74220586D01*
X97158229Y-74189935D01*
X97163659Y-74159761D01*
X97158229Y-74146668D01*
X97158229Y-73621896D01*
X97567085Y-73621896D01*
X97572515Y-73634988D01*
X97572515Y-74412396D01*
X97590999Y-74475348D01*
X97657572Y-74533033D01*
X97744764Y-74545570D01*
X97824891Y-74508977D01*
X97872515Y-74434872D01*
X97872515Y-73640523D01*
X97905746Y-73574059D01*
X97972210Y-73540828D01*
X98115675Y-73540828D01*
X98205090Y-73585535D01*
X98215371Y-73595817D01*
X98215372Y-74412396D01*
X98233856Y-74475348D01*
X98300429Y-74533033D01*
X98387621Y-74545570D01*
X98467748Y-74508977D01*
X98515372Y-74434872D01*
X98515372Y-73693323D01*
X98852799Y-73693323D01*
X98858229Y-73706415D01*
X98858229Y-74097038D01*
X98854368Y-74132802D01*
X98868075Y-74160216D01*
X98876713Y-74189634D01*
X98887425Y-74198916D01*
X98937083Y-74298230D01*
X98942448Y-74322892D01*
X98971654Y-74352098D01*
X98999825Y-74382384D01*
X99002665Y-74383110D01*
X99031720Y-74412166D01*
X99044610Y-74433867D01*
X99081568Y-74452346D01*
X99117854Y-74472160D01*
X99120778Y-74471950D01*
X99219637Y-74521380D01*
X99249899Y-74540828D01*
X99280551Y-74540828D01*
X99310725Y-74546258D01*
X99323817Y-74540828D01*
X99500153Y-74540828D01*
X99535916Y-74544689D01*
X99563330Y-74530981D01*
X99592749Y-74522344D01*
X99602030Y-74511632D01*
X99701346Y-74461974D01*
X99726008Y-74456610D01*
X99755219Y-74427398D01*
X99785499Y-74399233D01*
X99786225Y-74396392D01*
X99815282Y-74367335D01*
X99836982Y-74354447D01*
X99855456Y-74317497D01*
X99875276Y-74281202D01*
X99875066Y-74278277D01*
X99924495Y-74179419D01*
X99943943Y-74149158D01*
X99943943Y-74118506D01*
X99949373Y-74088332D01*
X99943943Y-74075239D01*
X99943943Y-73684618D01*
X99947804Y-73648855D01*
X99934096Y-73621440D01*
X99925459Y-73592022D01*
X99914747Y-73582740D01*
X99865089Y-73483422D01*
X99859724Y-73458762D01*
X99830516Y-73429554D01*
X99802348Y-73399272D01*
X99799507Y-73398545D01*
X99770449Y-73369488D01*
X99757562Y-73347790D01*
X99720612Y-73329315D01*
X99684316Y-73309496D01*
X99681392Y-73309705D01*
X99582538Y-73260278D01*
X99552273Y-73240828D01*
X99521620Y-73240828D01*
X99491448Y-73235398D01*
X99478356Y-73240828D01*
X99302018Y-73240828D01*
X99266254Y-73236967D01*
X99238838Y-73250675D01*
X99209423Y-73259312D01*
X99200141Y-73270023D01*
X99100826Y-73319681D01*
X99076163Y-73325047D01*
X99046932Y-73354277D01*
X99016673Y-73382424D01*
X99015946Y-73385263D01*
X98986889Y-73414321D01*
X98965191Y-73427209D01*
X98946715Y-73464160D01*
X98926897Y-73500454D01*
X98927106Y-73503378D01*
X98877679Y-73602232D01*
X98858229Y-73632498D01*
X98858229Y-73663151D01*
X98852799Y-73693323D01*
X98515372Y-73693323D01*
X98515372Y-73560749D01*
X98521307Y-73544837D01*
X98515372Y-73517556D01*
X98515372Y-73369260D01*
X98496888Y-73306308D01*
X98430315Y-73248623D01*
X98343123Y-73236086D01*
X98262996Y-73272679D01*
X98259883Y-73277522D01*
X98225395Y-73260278D01*
X98195130Y-73240828D01*
X98164477Y-73240828D01*
X98134305Y-73235398D01*
X98121213Y-73240828D01*
X97944875Y-73240828D01*
X97909111Y-73236967D01*
X97881695Y-73250675D01*
X97852280Y-73259312D01*
X97842998Y-73270023D01*
X97761042Y-73311002D01*
X97755213Y-73310797D01*
X97721999Y-73330524D01*
X97707570Y-73337739D01*
X97703538Y-73341489D01*
X97679476Y-73355781D01*
X97671914Y-73370904D01*
X97659530Y-73382424D01*
X97652596Y-73409539D01*
X97591960Y-73530811D01*
X97572515Y-73561070D01*
X97572515Y-73591721D01*
X97567085Y-73621896D01*
X97158229Y-73621896D01*
X97158229Y-72896478D01*
X101209141Y-72896478D01*
X101714487Y-74412519D01*
X101713876Y-74429422D01*
X101728147Y-74453500D01*
X101729889Y-74458724D01*
X101739098Y-74471975D01*
X101758791Y-74505199D01*
X101764003Y-74507811D01*
X101767332Y-74512600D01*
X101803015Y-74527361D01*
X101837545Y-74544665D01*
X101843344Y-74544044D01*
X101848730Y-74546272D01*
X101886727Y-74539399D01*
X101925131Y-74535288D01*
X101929671Y-74531632D01*
X101935412Y-74530594D01*
X101963672Y-74504258D01*
X101993746Y-74480046D01*
X101995589Y-74474514D01*
X101999855Y-74470540D01*
X102009387Y-74433122D01*
X102232177Y-73764752D01*
X102638512Y-73764752D01*
X102643941Y-73777844D01*
X102643942Y-74097038D01*
X102640081Y-74132802D01*
X102653788Y-74160216D01*
X102662426Y-74189634D01*
X102673138Y-74198916D01*
X102722795Y-74298229D01*
X102728161Y-74322893D01*
X102757381Y-74352113D01*
X102785538Y-74382384D01*
X102788378Y-74383110D01*
X102817435Y-74412167D01*
X102830324Y-74433867D01*
X102867273Y-74452341D01*
X102903569Y-74472161D01*
X102906493Y-74471951D01*
X103005351Y-74521380D01*
X103035613Y-74540828D01*
X103066265Y-74540828D01*
X103096439Y-74546258D01*
X103109531Y-74540828D01*
X103428724Y-74540828D01*
X103464487Y-74544689D01*
X103491901Y-74530981D01*
X103521320Y-74522344D01*
X103530601Y-74511632D01*
X103629919Y-74461974D01*
X103654580Y-74456609D01*
X103683783Y-74427404D01*
X103714070Y-74399233D01*
X103714796Y-74396391D01*
X103772402Y-74338785D01*
X103803846Y-74281201D01*
X103797560Y-74193338D01*
X103744771Y-74122819D01*
X103662237Y-74092036D01*
X103576162Y-74110762D01*
X103490802Y-74196122D01*
X103401390Y-74240828D01*
X103115067Y-74240828D01*
X103025653Y-74196121D01*
X102988649Y-74159117D01*
X102943942Y-74069704D01*
X102943942Y-73783382D01*
X102988649Y-73693968D01*
X103025654Y-73656962D01*
X103115067Y-73612257D01*
X103401390Y-73612257D01*
X103490803Y-73656963D01*
X103523510Y-73689670D01*
X103528632Y-73702300D01*
X103554113Y-73720273D01*
X103560269Y-73726430D01*
X103571652Y-73732646D01*
X103600614Y-73753075D01*
X103609789Y-73753471D01*
X103617853Y-73757874D01*
X103653208Y-73755345D01*
X103688621Y-73756874D01*
X103696556Y-73752245D01*
X103705716Y-73751590D01*
X103734089Y-73730350D01*
X103764709Y-73712489D01*
X103768881Y-73704306D01*
X103776236Y-73698801D01*
X103788625Y-73665584D01*
X103804723Y-73634014D01*
X103803809Y-73624876D01*
X103807020Y-73616268D01*
X103799484Y-73581629D01*
X103730731Y-72894086D01*
X103734399Y-72868579D01*
X103717445Y-72831455D01*
X103702110Y-72793641D01*
X103699256Y-72791628D01*
X103697806Y-72788452D01*
X103663474Y-72766388D01*
X103630128Y-72742867D01*
X103626639Y-72742716D01*
X103623701Y-72740828D01*
X103582893Y-72740828D01*
X103542121Y-72739068D01*
X103539104Y-72740828D01*
X102843803Y-72740828D01*
X102780851Y-72759312D01*
X102723166Y-72825885D01*
X102710629Y-72913077D01*
X102747222Y-72993204D01*
X102821327Y-73040828D01*
X103443909Y-73040828D01*
X103471051Y-73312257D01*
X103450193Y-73312257D01*
X103420018Y-73306827D01*
X103406926Y-73312257D01*
X103087733Y-73312257D01*
X103051970Y-73308396D01*
X103024555Y-73322103D01*
X102995137Y-73330741D01*
X102985855Y-73341452D01*
X102886539Y-73391110D01*
X102861878Y-73396475D01*
X102832666Y-73425686D01*
X102802387Y-73453852D01*
X102801660Y-73456692D01*
X102772603Y-73485749D01*
X102750904Y-73498638D01*
X102732428Y-73535589D01*
X102712610Y-73571883D01*
X102712819Y-73574807D01*
X102663392Y-73673661D01*
X102643942Y-73703927D01*
X102643942Y-73734580D01*
X102638512Y-73764752D01*
X102232177Y-73764752D01*
X102514494Y-72917801D01*
X102516866Y-72852234D01*
X102471951Y-72776457D01*
X102393198Y-72736991D01*
X102305611Y-72746368D01*
X102236996Y-72801610D01*
X101865370Y-73916486D01*
X101500853Y-72822933D01*
X101463410Y-72769056D01*
X101382012Y-72735384D01*
X101295330Y-72751063D01*
X101230887Y-72811116D01*
X101209141Y-72896478D01*
X97158229Y-72896478D01*
X97158229Y-72869260D01*
X97139745Y-72806308D01*
X97073172Y-72748623D01*
X96985980Y-72736086D01*
X96905853Y-72772679D01*
X96858229Y-72846784D01*
X96858229Y-74141131D01*
X96824996Y-74207596D01*
X96707570Y-74266309D01*
X96659530Y-74310995D01*
X96637708Y-74396337D01*
X96171987Y-74396337D01*
X96168581Y-74387823D01*
X96513887Y-73420967D01*
X96517653Y-73355466D01*
X96474360Y-73278750D01*
X96396465Y-73237618D01*
X96308698Y-73245129D01*
X96238924Y-73298900D01*
X96008229Y-73944846D01*
X95785093Y-73320066D01*
X95746513Y-73266998D01*
X95664417Y-73235065D01*
X95578088Y-73252584D01*
X95514936Y-73313995D01*
X95495011Y-73399800D01*
X94322515Y-73399800D01*
X94322515Y-71660114D01*
X104601086Y-71660114D01*
X104601086Y-75238686D01*
G37*
G36*
X185790175Y-91314735D02*
G01*
X185827178Y-91351738D01*
X185871884Y-91441152D01*
X185871885Y-91798903D01*
X185827177Y-91888318D01*
X185790173Y-91925322D01*
X185700761Y-91970028D01*
X185557295Y-91970028D01*
X185467880Y-91925320D01*
X185430878Y-91888318D01*
X185386171Y-91798904D01*
X185386171Y-91441153D01*
X185430878Y-91351739D01*
X185467882Y-91314734D01*
X185557295Y-91270028D01*
X185700760Y-91270028D01*
X185790175Y-91314735D01*
G37*
G36*
X187300457Y-91970028D02*
G01*
X186914438Y-91970028D01*
X186825024Y-91925321D01*
X186788019Y-91888316D01*
X186743314Y-91798903D01*
X186743314Y-91655437D01*
X186788020Y-91566024D01*
X186817198Y-91536846D01*
X186961568Y-91488723D01*
X186967238Y-91489744D01*
X186980330Y-91484314D01*
X187300457Y-91484314D01*
X187300457Y-91970028D01*
G37*
G36*
X187300457Y-91184314D02*
G01*
X186985867Y-91184314D01*
X186896454Y-91139607D01*
X186859448Y-91102602D01*
X186814742Y-91013190D01*
X186814742Y-90941153D01*
X186859449Y-90851738D01*
X186896453Y-90814734D01*
X186985867Y-90770028D01*
X187300457Y-90770028D01*
X187300457Y-91184314D01*
G37*
G36*
X188471886Y-92967886D02*
G01*
X182979028Y-92967886D01*
X182979028Y-92142277D01*
X184081429Y-92142277D01*
X184118022Y-92222404D01*
X184192127Y-92270028D01*
X184370952Y-92270028D01*
X184406715Y-92273889D01*
X184434129Y-92260181D01*
X184463548Y-92251544D01*
X184472829Y-92240832D01*
X184554786Y-92199854D01*
X184560615Y-92200060D01*
X184593819Y-92180337D01*
X184608258Y-92173119D01*
X184612292Y-92169366D01*
X184636352Y-92155076D01*
X184643913Y-92139952D01*
X184656298Y-92128433D01*
X184663232Y-92101315D01*
X184723868Y-91980044D01*
X184743314Y-91949786D01*
X184743313Y-91919135D01*
X184748744Y-91888961D01*
X184743314Y-91875868D01*
X184743314Y-91422523D01*
X185080741Y-91422523D01*
X185086171Y-91435615D01*
X185086171Y-91826238D01*
X185082310Y-91862002D01*
X185096017Y-91889416D01*
X185104655Y-91918834D01*
X185115367Y-91928116D01*
X185165025Y-92027430D01*
X185170390Y-92052092D01*
X185199596Y-92081298D01*
X185227767Y-92111584D01*
X185230607Y-92112310D01*
X185259662Y-92141366D01*
X185272552Y-92163067D01*
X185309510Y-92181546D01*
X185345796Y-92201360D01*
X185348720Y-92201150D01*
X185447579Y-92250580D01*
X185477841Y-92270028D01*
X185508493Y-92270028D01*
X185538667Y-92275458D01*
X185551759Y-92270028D01*
X185728095Y-92270028D01*
X185763858Y-92273889D01*
X185791272Y-92260181D01*
X185820691Y-92251544D01*
X185829972Y-92240832D01*
X185929288Y-92191174D01*
X185953950Y-92185810D01*
X185983161Y-92156598D01*
X186013441Y-92128433D01*
X186014167Y-92125592D01*
X186043224Y-92096535D01*
X186064924Y-92083647D01*
X186083398Y-92046697D01*
X186103218Y-92010402D01*
X186103008Y-92007477D01*
X186152437Y-91908619D01*
X186171885Y-91878358D01*
X186171885Y-91847706D01*
X186177315Y-91817532D01*
X186171885Y-91804439D01*
X186171885Y-91636810D01*
X186437884Y-91636810D01*
X186443314Y-91649902D01*
X186443314Y-91826237D01*
X186439453Y-91862001D01*
X186453160Y-91889415D01*
X186461798Y-91918834D01*
X186472509Y-91928115D01*
X186522167Y-92027431D01*
X186527532Y-92052093D01*
X186556737Y-92081298D01*
X186584909Y-92111584D01*
X186587749Y-92112310D01*
X186616806Y-92141367D01*
X186629695Y-92163067D01*
X186666644Y-92181541D01*
X186702940Y-92201361D01*
X186705864Y-92201151D01*
X186804722Y-92250580D01*
X186834984Y-92270028D01*
X186865636Y-92270028D01*
X186895810Y-92275458D01*
X186908902Y-92270028D01*
X187439726Y-92270028D01*
X187472706Y-92274770D01*
X187503012Y-92260929D01*
X187534977Y-92251544D01*
X187542451Y-92242918D01*
X187552833Y-92238177D01*
X187570845Y-92210149D01*
X187592662Y-92184971D01*
X187594286Y-92173673D01*
X187600457Y-92164072D01*
X187600457Y-92130758D01*
X187605199Y-92097779D01*
X187600457Y-92087395D01*
X187600457Y-91345044D01*
X187605199Y-91312065D01*
X187600457Y-91301681D01*
X187600457Y-90630758D01*
X187605199Y-90597779D01*
X187591358Y-90567472D01*
X187581973Y-90535508D01*
X187573347Y-90528033D01*
X187568606Y-90517652D01*
X187540578Y-90499639D01*
X187515400Y-90477823D01*
X187504102Y-90476198D01*
X187494501Y-90470028D01*
X187461188Y-90470028D01*
X187428208Y-90465286D01*
X187417825Y-90470028D01*
X186958532Y-90470028D01*
X186922768Y-90466167D01*
X186895352Y-90479875D01*
X186865937Y-90488512D01*
X186856655Y-90499223D01*
X186757340Y-90548882D01*
X186732679Y-90554247D01*
X186703464Y-90583461D01*
X186673187Y-90611624D01*
X186672460Y-90614464D01*
X186643404Y-90643519D01*
X186621704Y-90656409D01*
X186603223Y-90693369D01*
X186583411Y-90729653D01*
X186583620Y-90732576D01*
X186534192Y-90831432D01*
X186514742Y-90861698D01*
X186514742Y-90892351D01*
X186509312Y-90922523D01*
X186514742Y-90935615D01*
X186514742Y-91040524D01*
X186510881Y-91076288D01*
X186524588Y-91103702D01*
X186533226Y-91133120D01*
X186543938Y-91142402D01*
X186593596Y-91241717D01*
X186598962Y-91266380D01*
X186628175Y-91295592D01*
X186629607Y-91297133D01*
X186614400Y-91307702D01*
X186608981Y-91320799D01*
X186571974Y-91357806D01*
X186550275Y-91370695D01*
X186531799Y-91407646D01*
X186511981Y-91443940D01*
X186512190Y-91446864D01*
X186462759Y-91545725D01*
X186443314Y-91575984D01*
X186443314Y-91606635D01*
X186437884Y-91636810D01*
X186171885Y-91636810D01*
X186171885Y-91413818D01*
X186175746Y-91378055D01*
X186162038Y-91350640D01*
X186153401Y-91321222D01*
X186142689Y-91311940D01*
X186093031Y-91212622D01*
X186087666Y-91187962D01*
X186058458Y-91158754D01*
X186030290Y-91128472D01*
X186027449Y-91127745D01*
X185998391Y-91098688D01*
X185985504Y-91076990D01*
X185948554Y-91058515D01*
X185912258Y-91038696D01*
X185909334Y-91038905D01*
X185810480Y-90989478D01*
X185780215Y-90970028D01*
X185749562Y-90970028D01*
X185719390Y-90964598D01*
X185706298Y-90970028D01*
X185529960Y-90970028D01*
X185494196Y-90966167D01*
X185466780Y-90979875D01*
X185437365Y-90988512D01*
X185428083Y-90999223D01*
X185328768Y-91048881D01*
X185304105Y-91054247D01*
X185274874Y-91083477D01*
X185244615Y-91111624D01*
X185243888Y-91114463D01*
X185214831Y-91143521D01*
X185193133Y-91156409D01*
X185174657Y-91193360D01*
X185154839Y-91229654D01*
X185155048Y-91232578D01*
X185105621Y-91331432D01*
X185086171Y-91361698D01*
X185086171Y-91392351D01*
X185080741Y-91422523D01*
X184743314Y-91422523D01*
X184743314Y-91270028D01*
X184829167Y-91270028D01*
X184892119Y-91251544D01*
X184949804Y-91184971D01*
X184962341Y-91097779D01*
X184925748Y-91017652D01*
X184851643Y-90970028D01*
X184743314Y-90970028D01*
X184743314Y-90598460D01*
X184724830Y-90535508D01*
X184658257Y-90477823D01*
X184571065Y-90465286D01*
X184490938Y-90501879D01*
X184443314Y-90575984D01*
X184443314Y-90970028D01*
X184214603Y-90970028D01*
X184151651Y-90988512D01*
X184093966Y-91055085D01*
X184081429Y-91142277D01*
X184118022Y-91222404D01*
X184192127Y-91270028D01*
X184443314Y-91270028D01*
X184443314Y-91870331D01*
X184410081Y-91936796D01*
X184343618Y-91970028D01*
X184214603Y-91970028D01*
X184151651Y-91988512D01*
X184093966Y-92055085D01*
X184081429Y-92142277D01*
X182979028Y-92142277D01*
X182979028Y-89389314D01*
X188471886Y-89389314D01*
X188471886Y-92967886D01*
G37*
D12*
X178358800Y-76555600D03*
D13*
X178358800Y-74015600D03*
X178358800Y-71475600D03*
X178358800Y-68935600D03*
D14*
X137170800Y-81631400D03*
X134670800Y-84131400D03*
X132170800Y-81631400D03*
D15*
X103505000Y-80426000D03*
D16*
X97705000Y-80426000D03*
D17*
X100505000Y-85226000D03*
D12*
X156413200Y-87528400D03*
D13*
X158953200Y-87528400D03*
X161493200Y-87528400D03*
X164033200Y-87528400D03*
X166573200Y-87528400D03*
X169113200Y-87528400D03*
D18*
X156272000Y-63863748D03*
D19*
X156272000Y-65863748D03*
X156272000Y-67863748D03*
X156272000Y-69863748D03*
X156272000Y-71863748D03*
X156272000Y-73863748D03*
X156272000Y-75863748D03*
X156272000Y-77863748D03*
X171672000Y-77863748D03*
X171572000Y-75863748D03*
X171672000Y-73863748D03*
X171672000Y-71863748D03*
X171672000Y-69863748D03*
X171672000Y-67863748D03*
X171672000Y-65863748D03*
X171672000Y-63863748D03*
D20*
X100111000Y-63887000D03*
X102111000Y-63887000D03*
X108111000Y-63887000D03*
X110111000Y-63887000D03*
X112111000Y-63887000D03*
X114111000Y-63887000D03*
X116111000Y-63887000D03*
X118111000Y-63887000D03*
X120111000Y-63887000D03*
X122111000Y-63887000D03*
X176111000Y-63887000D03*
X178111000Y-63887000D03*
X180111000Y-63887000D03*
X186111000Y-63887000D03*
X188111000Y-63887000D03*
D21*
X181000400Y-68834000D03*
X184200800Y-88442800D03*
X186740800Y-71323200D03*
X142494000Y-71678800D03*
X126500000Y-82000000D03*
X138836400Y-79248000D03*
X121259600Y-85242400D03*
X138836400Y-76403200D03*
X106273600Y-80426000D03*
X184150000Y-86360000D03*
X108153200Y-65887600D03*
X178206400Y-79552800D03*
X153009600Y-77876400D03*
X153517600Y-73863200D03*
X118110000Y-67614800D03*
X122123200Y-60655200D03*
X161290000Y-70916800D03*
X161290000Y-76657200D03*
X161188400Y-63906400D03*
X158953200Y-84480400D03*
X167248800Y-84363600D03*
X166268400Y-78486000D03*
X168808400Y-71932800D03*
X166268400Y-78486000D03*
X174955200Y-78028800D03*
X140665200Y-88138000D03*
X158902400Y-67868800D03*
X146354800Y-89255600D03*
X120142000Y-59639200D03*
D22*
X169621200Y-89611200D02*
X157429200Y-89611200D01*
X97705000Y-84852600D02*
X98078400Y-85226000D01*
X157429200Y-89611200D02*
X156413200Y-88595200D01*
X178358800Y-68935600D02*
X180898800Y-68935600D01*
X172364400Y-86868000D02*
X169621200Y-89611200D01*
X172364400Y-79256148D02*
X172364400Y-86868000D01*
X98078400Y-85226000D02*
X100505000Y-85226000D01*
X170972000Y-77863748D02*
X172364400Y-79256148D01*
X100505000Y-85226000D02*
X120633600Y-85226000D01*
X180898800Y-68935600D02*
X181000400Y-68834000D01*
X97705000Y-80426000D02*
X97705000Y-84852600D01*
X156413200Y-88595200D02*
X156413200Y-87528400D01*
X178206400Y-79552800D02*
X184150000Y-85496400D01*
D23*
X108153200Y-65887600D02*
X108153200Y-65980600D01*
D22*
X178358800Y-76555600D02*
X178358800Y-79400400D01*
X184150000Y-85496400D02*
X184150000Y-86360000D01*
D23*
X106273600Y-80426000D02*
X103505000Y-80426000D01*
X110296400Y-76403200D02*
X138836400Y-76403200D01*
X108111000Y-78588600D02*
X108153200Y-78546400D01*
X108153200Y-78546400D02*
X108153200Y-65887600D01*
X108111000Y-78588600D02*
X110296400Y-76403200D01*
X106273600Y-80426000D02*
X108111000Y-78588600D01*
D22*
X178358800Y-79400400D02*
X178206400Y-79552800D01*
X159969200Y-77876400D02*
X153009600Y-77876400D01*
X161493200Y-87528400D02*
X161493200Y-79400400D01*
X153022252Y-77863748D02*
X153009600Y-77876400D01*
X161493200Y-79400400D02*
X159969200Y-77876400D01*
X156972000Y-77863748D02*
X153022252Y-77863748D01*
D24*
X156972000Y-73863748D02*
X153518148Y-73863748D01*
X153518148Y-73863748D02*
X153517600Y-73863200D01*
X170972000Y-75863748D02*
X172434548Y-75863748D01*
X150876000Y-90525600D02*
X169672000Y-90525600D01*
X173634400Y-77063600D02*
X173634400Y-77025452D01*
X122326400Y-70002400D02*
X139496800Y-70002400D01*
X169672000Y-90525600D02*
X173634400Y-86563200D01*
X139496800Y-70002400D02*
X141173200Y-71678800D01*
X141173200Y-71678800D02*
X141173200Y-84734400D01*
X143611600Y-87172800D02*
X147523200Y-87172800D01*
X119938800Y-67614800D02*
X122326400Y-70002400D01*
X118110000Y-67614800D02*
X119938800Y-67614800D01*
X147523200Y-87172800D02*
X150876000Y-90525600D01*
X172434548Y-75863748D02*
X173634400Y-77063600D01*
X141173200Y-84734400D02*
X143611600Y-87172800D01*
X173634400Y-86563200D02*
X173634400Y-77063600D01*
X152501600Y-61264800D02*
X151892000Y-60655200D01*
X151892000Y-60655200D02*
X122123200Y-60655200D01*
X156972000Y-75863748D02*
X153689348Y-75863748D01*
X153689348Y-75863748D02*
X152501600Y-74676000D01*
X152501600Y-74676000D02*
X152501600Y-61264800D01*
D25*
X158902400Y-69799200D02*
X157036548Y-69799200D01*
X160020000Y-70916800D02*
X158902400Y-69799200D01*
X157036548Y-69799200D02*
X156972000Y-69863748D01*
X161290000Y-70916800D02*
X160020000Y-70916800D01*
X156972000Y-63863748D02*
X161145748Y-63863748D01*
D24*
X161290000Y-76657200D02*
X162306000Y-75641200D01*
X162306000Y-75641200D02*
X162306000Y-65024000D01*
X161145748Y-63863748D02*
X161188400Y-63906400D01*
X162306000Y-65024000D02*
X161188400Y-63906400D01*
D22*
X158953200Y-87528400D02*
X158953200Y-84378800D01*
D25*
X174244000Y-65481200D02*
X173861452Y-65863748D01*
X164033200Y-87528400D02*
X164033200Y-63550800D01*
X164033200Y-63550800D02*
X165049200Y-62534800D01*
X173861452Y-65863748D02*
X170972000Y-65863748D01*
X165049200Y-62534800D02*
X173837600Y-62534800D01*
X173837600Y-62534800D02*
X174244000Y-62941200D01*
X174244000Y-62941200D02*
X174244000Y-65481200D01*
X166311052Y-63863748D02*
X165252400Y-64922400D01*
X165252400Y-64922400D02*
X165252400Y-86207600D01*
X170972000Y-63863748D02*
X166311052Y-63863748D01*
X165252400Y-86207600D02*
X166573200Y-87528400D01*
X167269200Y-85633600D02*
X169113200Y-87477600D01*
X169113200Y-87477600D02*
X169113200Y-87528400D01*
X167248800Y-85633600D02*
X167269200Y-85633600D01*
X167248800Y-84363600D02*
X167248800Y-85633600D01*
D24*
X170972000Y-69863748D02*
X173089348Y-69863748D01*
X173089348Y-69863748D02*
X177241200Y-74015600D01*
X177241200Y-74015600D02*
X178358800Y-74015600D01*
X176326800Y-71475600D02*
X178358800Y-71475600D01*
X172714948Y-67863748D02*
X176326800Y-71475600D01*
X170972000Y-67863748D02*
X172714948Y-67863748D01*
D25*
X166268400Y-72542400D02*
X166928800Y-71882000D01*
X170953748Y-71882000D02*
X170972000Y-71863748D01*
X166268400Y-78486000D02*
X166268400Y-72542400D01*
X166928800Y-71882000D02*
X170953748Y-71882000D01*
D24*
X147015200Y-88138000D02*
X140665200Y-88138000D01*
X150012400Y-91135200D02*
X147015200Y-88138000D01*
X170230800Y-91135200D02*
X150012400Y-91135200D01*
X174955200Y-86410800D02*
X170230800Y-91135200D01*
X174955200Y-78028800D02*
X174955200Y-86410800D01*
D25*
X156972000Y-67863748D02*
X158897348Y-67863748D01*
D24*
X158897348Y-67863748D02*
X158902400Y-67868800D01*
X176326800Y-76047600D02*
X176326800Y-86106000D01*
X170484800Y-91948000D02*
X149047200Y-91948000D01*
X176326800Y-86106000D02*
X170484800Y-91948000D01*
X149047200Y-91948000D02*
X146354800Y-89255600D01*
X170972000Y-73863748D02*
X174142948Y-73863748D01*
X174142948Y-73863748D02*
X176326800Y-76047600D01*
X154043852Y-71863748D02*
X156972000Y-71863748D01*
X153517600Y-60655200D02*
X153517600Y-71374000D01*
X120142000Y-59639200D02*
X152501600Y-59639200D01*
X154025600Y-71882000D02*
X154043852Y-71863748D01*
X153517600Y-71374000D02*
X154025600Y-71882000D01*
X152501600Y-59639200D02*
X153517600Y-60655200D01*
G04 #@! TA.AperFunction,Conductor*
G36*
X194192539Y-57020185D02*
G01*
X194238294Y-57072989D01*
X194249500Y-57124500D01*
X194249500Y-92875500D01*
X194229815Y-92942539D01*
X194177011Y-92988294D01*
X194125500Y-92999500D01*
X188646386Y-92999500D01*
X188579347Y-92979815D01*
X188533592Y-92927011D01*
X188522386Y-92875500D01*
X188522386Y-90000000D01*
X189644551Y-90000000D01*
X189664317Y-90251149D01*
X189723126Y-90496110D01*
X189771330Y-90612485D01*
X189819534Y-90728859D01*
X189951164Y-90943659D01*
X190114776Y-91135224D01*
X190306341Y-91298836D01*
X190521141Y-91430466D01*
X190753889Y-91526873D01*
X190998852Y-91585683D01*
X191187118Y-91600500D01*
X191189563Y-91600500D01*
X191310437Y-91600500D01*
X191312882Y-91600500D01*
X191501148Y-91585683D01*
X191746111Y-91526873D01*
X191978859Y-91430466D01*
X192193659Y-91298836D01*
X192385224Y-91135224D01*
X192548836Y-90943659D01*
X192680466Y-90728859D01*
X192776873Y-90496111D01*
X192835683Y-90251148D01*
X192855449Y-90000000D01*
X192835683Y-89748852D01*
X192776873Y-89503889D01*
X192680466Y-89271141D01*
X192548836Y-89056341D01*
X192385224Y-88864776D01*
X192193659Y-88701164D01*
X191978859Y-88569534D01*
X191862485Y-88521330D01*
X191746110Y-88473126D01*
X191501149Y-88414317D01*
X191315316Y-88399691D01*
X191315301Y-88399690D01*
X191312882Y-88399500D01*
X191187118Y-88399500D01*
X191184699Y-88399690D01*
X191184683Y-88399691D01*
X190998850Y-88414317D01*
X190753889Y-88473126D01*
X190521139Y-88569535D01*
X190306342Y-88701163D01*
X190114776Y-88864776D01*
X189951163Y-89056342D01*
X189819535Y-89271139D01*
X189723126Y-89503889D01*
X189664317Y-89748850D01*
X189644551Y-90000000D01*
X188522386Y-90000000D01*
X188522386Y-89338814D01*
X182928528Y-89338814D01*
X182928528Y-92875500D01*
X182908843Y-92942539D01*
X182856039Y-92988294D01*
X182804528Y-92999500D01*
X139014786Y-92999500D01*
X138947747Y-92979815D01*
X138901992Y-92927011D01*
X138890786Y-92875500D01*
X138890786Y-89440414D01*
X109939785Y-89440414D01*
X109939785Y-92875500D01*
X109920100Y-92942539D01*
X109867296Y-92988294D01*
X109815785Y-92999500D01*
X94374500Y-92999500D01*
X94307461Y-92979815D01*
X94261706Y-92927011D01*
X94250500Y-92875500D01*
X94250500Y-90000000D01*
X95644551Y-90000000D01*
X95664317Y-90251149D01*
X95723126Y-90496110D01*
X95771330Y-90612485D01*
X95819534Y-90728859D01*
X95951164Y-90943659D01*
X96114776Y-91135224D01*
X96306341Y-91298836D01*
X96521141Y-91430466D01*
X96753889Y-91526873D01*
X96998852Y-91585683D01*
X97187118Y-91600500D01*
X97189563Y-91600500D01*
X97310437Y-91600500D01*
X97312882Y-91600500D01*
X97501148Y-91585683D01*
X97746111Y-91526873D01*
X97978859Y-91430466D01*
X98193659Y-91298836D01*
X98385224Y-91135224D01*
X98548836Y-90943659D01*
X98680466Y-90728859D01*
X98776873Y-90496111D01*
X98835683Y-90251148D01*
X98855449Y-90000000D01*
X98835683Y-89748852D01*
X98776873Y-89503889D01*
X98680466Y-89271141D01*
X98548836Y-89056341D01*
X98385224Y-88864776D01*
X98193659Y-88701164D01*
X97978859Y-88569534D01*
X97862484Y-88521330D01*
X97746110Y-88473126D01*
X97501149Y-88414317D01*
X97315316Y-88399691D01*
X97315301Y-88399690D01*
X97312882Y-88399500D01*
X97187118Y-88399500D01*
X97184699Y-88399690D01*
X97184683Y-88399691D01*
X96998850Y-88414317D01*
X96753889Y-88473126D01*
X96521139Y-88569535D01*
X96306342Y-88701163D01*
X96114776Y-88864776D01*
X95951163Y-89056342D01*
X95819535Y-89271139D01*
X95723126Y-89503889D01*
X95664317Y-89748850D01*
X95644551Y-90000000D01*
X94250500Y-90000000D01*
X94250500Y-84975999D01*
X98025976Y-84975999D01*
X98025978Y-84976000D01*
X99071314Y-84976000D01*
X99045507Y-85016156D01*
X99005000Y-85154111D01*
X99005000Y-85297889D01*
X99045507Y-85435844D01*
X99071314Y-85476000D01*
X98025977Y-85476000D01*
X98045916Y-85595491D01*
X98126631Y-85830606D01*
X98244946Y-86049233D01*
X98397631Y-86245403D01*
X98580522Y-86413766D01*
X98788634Y-86549733D01*
X99016278Y-86649586D01*
X99257262Y-86710612D01*
X99440412Y-86725788D01*
X99445527Y-86726000D01*
X100255000Y-86726000D01*
X100255000Y-85726000D01*
X100755000Y-85726000D01*
X100755000Y-86726000D01*
X101564473Y-86726000D01*
X101569587Y-86725788D01*
X101752737Y-86710612D01*
X101993721Y-86649586D01*
X102221365Y-86549733D01*
X102429477Y-86413766D01*
X102612368Y-86245403D01*
X102765053Y-86049233D01*
X102883368Y-85830606D01*
X102964083Y-85595491D01*
X102984023Y-85476000D01*
X101938686Y-85476000D01*
X101964493Y-85435844D01*
X102005000Y-85297889D01*
X102005000Y-85154111D01*
X101964493Y-85016156D01*
X101938686Y-84976000D01*
X102984022Y-84976000D01*
X102984023Y-84975999D01*
X102964083Y-84856508D01*
X102883368Y-84621393D01*
X102765053Y-84402766D01*
X102612368Y-84206596D01*
X102530683Y-84131400D01*
X133355293Y-84131400D01*
X133375278Y-84359832D01*
X133434629Y-84581331D01*
X133486856Y-84693333D01*
X133531538Y-84789153D01*
X133663064Y-84976991D01*
X133825209Y-85139136D01*
X134013047Y-85270662D01*
X134220870Y-85367571D01*
X134442365Y-85426921D01*
X134670800Y-85446906D01*
X134899235Y-85426921D01*
X135120730Y-85367571D01*
X135328553Y-85270662D01*
X135516391Y-85139136D01*
X135678536Y-84976991D01*
X135810062Y-84789153D01*
X135906971Y-84581330D01*
X135966321Y-84359835D01*
X135986306Y-84131400D01*
X135966321Y-83902965D01*
X135906971Y-83681470D01*
X135810062Y-83473647D01*
X135678536Y-83285809D01*
X135516391Y-83123664D01*
X135328553Y-82992138D01*
X135188694Y-82926921D01*
X135120731Y-82895229D01*
X134899232Y-82835878D01*
X134670799Y-82815893D01*
X134442367Y-82835878D01*
X134220868Y-82895229D01*
X134013049Y-82992137D01*
X134013047Y-82992138D01*
X133830313Y-83120090D01*
X133825205Y-83123667D01*
X133663067Y-83285805D01*
X133663064Y-83285808D01*
X133663064Y-83285809D01*
X133601136Y-83374252D01*
X133531537Y-83473649D01*
X133434629Y-83681468D01*
X133375278Y-83902967D01*
X133355293Y-84131400D01*
X102530683Y-84131400D01*
X102429477Y-84038233D01*
X102221365Y-83902266D01*
X101993721Y-83802413D01*
X101752737Y-83741387D01*
X101569587Y-83726211D01*
X101564473Y-83726000D01*
X100755000Y-83726000D01*
X100755000Y-84726000D01*
X100255000Y-84726000D01*
X100255000Y-83726000D01*
X99445527Y-83726000D01*
X99440412Y-83726211D01*
X99257262Y-83741387D01*
X99016278Y-83802413D01*
X98788634Y-83902266D01*
X98580522Y-84038233D01*
X98397631Y-84206596D01*
X98244946Y-84402766D01*
X98126631Y-84621393D01*
X98045916Y-84856508D01*
X98025976Y-84975999D01*
X94250500Y-84975999D01*
X94250500Y-81485472D01*
X96205000Y-81485472D01*
X96205211Y-81490587D01*
X96220387Y-81673737D01*
X96281413Y-81914721D01*
X96381266Y-82142365D01*
X96517233Y-82350477D01*
X96685596Y-82533368D01*
X96881766Y-82686053D01*
X97100393Y-82804368D01*
X97335508Y-82885083D01*
X97454999Y-82905023D01*
X97455000Y-82905022D01*
X97455000Y-81859686D01*
X97495156Y-81885493D01*
X97633111Y-81926000D01*
X97776889Y-81926000D01*
X97914844Y-81885493D01*
X97955000Y-81859686D01*
X97955000Y-82905023D01*
X98074491Y-82885083D01*
X98309606Y-82804368D01*
X98528233Y-82686053D01*
X98548115Y-82670578D01*
X102004500Y-82670578D01*
X102004501Y-82673872D01*
X102004853Y-82677152D01*
X102004854Y-82677159D01*
X102010909Y-82733484D01*
X102024776Y-82770662D01*
X102061204Y-82868331D01*
X102147454Y-82983546D01*
X102262669Y-83069796D01*
X102397517Y-83120091D01*
X102457127Y-83126500D01*
X104552872Y-83126499D01*
X104612483Y-83120091D01*
X104747331Y-83069796D01*
X104862546Y-82983546D01*
X104948796Y-82868331D01*
X104999091Y-82733483D01*
X105005500Y-82673873D01*
X105005500Y-81631399D01*
X130855293Y-81631399D01*
X130875278Y-81859832D01*
X130934629Y-82081331D01*
X130963090Y-82142365D01*
X131031538Y-82289153D01*
X131163064Y-82476991D01*
X131325209Y-82639136D01*
X131513047Y-82770662D01*
X131720870Y-82867571D01*
X131942365Y-82926921D01*
X132170800Y-82946906D01*
X132399235Y-82926921D01*
X132620730Y-82867571D01*
X132828553Y-82770662D01*
X133016391Y-82639136D01*
X133178536Y-82476991D01*
X133310062Y-82289153D01*
X133406971Y-82081330D01*
X133466321Y-81859835D01*
X133486306Y-81631400D01*
X135855795Y-81631400D01*
X135875773Y-81859746D01*
X135935100Y-82081157D01*
X136031973Y-82288903D01*
X136084592Y-82364051D01*
X136084594Y-82364052D01*
X136726349Y-81722296D01*
X136727127Y-81732665D01*
X136776687Y-81858941D01*
X136861265Y-81964999D01*
X136973347Y-82041416D01*
X137081099Y-82074653D01*
X136438146Y-82717605D01*
X136438146Y-82717606D01*
X136513296Y-82770226D01*
X136721042Y-82867099D01*
X136942453Y-82926426D01*
X137170800Y-82946404D01*
X137399146Y-82926426D01*
X137620557Y-82867099D01*
X137828299Y-82770227D01*
X137903452Y-82717605D01*
X137259032Y-82073184D01*
X137304938Y-82066265D01*
X137427157Y-82007407D01*
X137526598Y-81915140D01*
X137594425Y-81797660D01*
X137612299Y-81719346D01*
X138257005Y-82364052D01*
X138309627Y-82288899D01*
X138406499Y-82081157D01*
X138465826Y-81859746D01*
X138485804Y-81631399D01*
X138465826Y-81403053D01*
X138406499Y-81181642D01*
X138309626Y-80973896D01*
X138257005Y-80898746D01*
X137615249Y-81540502D01*
X137614473Y-81530135D01*
X137564913Y-81403859D01*
X137480335Y-81297801D01*
X137368253Y-81221384D01*
X137260500Y-81188146D01*
X137903452Y-80545194D01*
X137903451Y-80545192D01*
X137828303Y-80492573D01*
X137620557Y-80395700D01*
X137399146Y-80336373D01*
X137170800Y-80316395D01*
X136942453Y-80336373D01*
X136721042Y-80395700D01*
X136513298Y-80492572D01*
X136438146Y-80545192D01*
X137082569Y-81189615D01*
X137036662Y-81196535D01*
X136914443Y-81255393D01*
X136815002Y-81347660D01*
X136747175Y-81465140D01*
X136729300Y-81543453D01*
X136084592Y-80898746D01*
X136031972Y-80973898D01*
X135935100Y-81181642D01*
X135875773Y-81403053D01*
X135855795Y-81631400D01*
X133486306Y-81631400D01*
X133466321Y-81402965D01*
X133406971Y-81181470D01*
X133310062Y-80973647D01*
X133178536Y-80785809D01*
X133016391Y-80623664D01*
X132828553Y-80492138D01*
X132705550Y-80434781D01*
X132620731Y-80395229D01*
X132399232Y-80335878D01*
X132170799Y-80315893D01*
X131942367Y-80335878D01*
X131720868Y-80395229D01*
X131513049Y-80492137D01*
X131513047Y-80492138D01*
X131336407Y-80615823D01*
X131325205Y-80623667D01*
X131163067Y-80785805D01*
X131163064Y-80785808D01*
X131163064Y-80785809D01*
X131083985Y-80898746D01*
X131031537Y-80973649D01*
X130934629Y-81181468D01*
X130875278Y-81402967D01*
X130855293Y-81631399D01*
X105005500Y-81631399D01*
X105005500Y-81550499D01*
X105025185Y-81483461D01*
X105077989Y-81437706D01*
X105129500Y-81426500D01*
X105786570Y-81426500D01*
X105831363Y-81434873D01*
X105971144Y-81489024D01*
X106171624Y-81526500D01*
X106171626Y-81526500D01*
X106375574Y-81526500D01*
X106375576Y-81526500D01*
X106576056Y-81489024D01*
X106766237Y-81415348D01*
X106939641Y-81307981D01*
X107061892Y-81196535D01*
X107090363Y-81170580D01*
X107213272Y-81007822D01*
X107213271Y-81007822D01*
X107213273Y-81007821D01*
X107304182Y-80825250D01*
X107304183Y-80825246D01*
X107309304Y-80814962D01*
X107312402Y-80816504D01*
X107332883Y-80781635D01*
X108736307Y-79378211D01*
X108736317Y-79378204D01*
X108850589Y-79263931D01*
X108852799Y-79261775D01*
X108916253Y-79201459D01*
X108917263Y-79200007D01*
X108931351Y-79183168D01*
X110674501Y-77440019D01*
X110735825Y-77406534D01*
X110762183Y-77403700D01*
X138349370Y-77403700D01*
X138394163Y-77412073D01*
X138533944Y-77466224D01*
X138734424Y-77503700D01*
X138734426Y-77503700D01*
X138938374Y-77503700D01*
X138938376Y-77503700D01*
X139138856Y-77466224D01*
X139329037Y-77392548D01*
X139502441Y-77285181D01*
X139653164Y-77147779D01*
X139776073Y-76985021D01*
X139776073Y-76985019D01*
X139776075Y-76985018D01*
X139829992Y-76876736D01*
X139866982Y-76802450D01*
X139922797Y-76606283D01*
X139941615Y-76403200D01*
X139922797Y-76200117D01*
X139866982Y-76003950D01*
X139839022Y-75947798D01*
X139776075Y-75821381D01*
X139653163Y-75658619D01*
X139502441Y-75521218D01*
X139329038Y-75413852D01*
X139138857Y-75340176D01*
X139072029Y-75327684D01*
X138938376Y-75302700D01*
X138734424Y-75302700D01*
X138634183Y-75321438D01*
X138533942Y-75340176D01*
X138394163Y-75394327D01*
X138349370Y-75402700D01*
X110310638Y-75402700D01*
X110307496Y-75402660D01*
X110220035Y-75400443D01*
X110161981Y-75410848D01*
X110152653Y-75412157D01*
X110093961Y-75418126D01*
X110064927Y-75427235D01*
X110049688Y-75430975D01*
X110019745Y-75436342D01*
X109964968Y-75458221D01*
X109956098Y-75461379D01*
X109899810Y-75479041D01*
X109873209Y-75493805D01*
X109859039Y-75500535D01*
X109830785Y-75511822D01*
X109781521Y-75544287D01*
X109773470Y-75549164D01*
X109721898Y-75577790D01*
X109698814Y-75597607D01*
X109686287Y-75607053D01*
X109660881Y-75623798D01*
X109619175Y-75665503D01*
X109612268Y-75671904D01*
X109567503Y-75710335D01*
X109548880Y-75734393D01*
X109538508Y-75746169D01*
X109365381Y-75919297D01*
X109304058Y-75952782D01*
X109234367Y-75947798D01*
X109178433Y-75905927D01*
X109154016Y-75840462D01*
X109153700Y-75831616D01*
X109153700Y-67614800D01*
X117004785Y-67614800D01*
X117023602Y-67817883D01*
X117079418Y-68014051D01*
X117170324Y-68196618D01*
X117293236Y-68359380D01*
X117443958Y-68496781D01*
X117617361Y-68604147D01*
X117617363Y-68604148D01*
X117807544Y-68677824D01*
X118008024Y-68715300D01*
X118008026Y-68715300D01*
X118211974Y-68715300D01*
X118211976Y-68715300D01*
X118412456Y-68677824D01*
X118602637Y-68604148D01*
X118776041Y-68496781D01*
X118926764Y-68359379D01*
X118979478Y-68289573D01*
X119035588Y-68247937D01*
X119078433Y-68240300D01*
X119628348Y-68240300D01*
X119695387Y-68259985D01*
X119716029Y-68276619D01*
X121825596Y-70386187D01*
X121838496Y-70402288D01*
X121889623Y-70450300D01*
X121892420Y-70453011D01*
X121911929Y-70472520D01*
X121915109Y-70474987D01*
X121923971Y-70482555D01*
X121938308Y-70496019D01*
X121955818Y-70512462D01*
X121973370Y-70522111D01*
X121989638Y-70532797D01*
X122005464Y-70545073D01*
X122045546Y-70562417D01*
X122056033Y-70567555D01*
X122094307Y-70588597D01*
X122102810Y-70590779D01*
X122113708Y-70593578D01*
X122132113Y-70599878D01*
X122150504Y-70607837D01*
X122193650Y-70614670D01*
X122205068Y-70617035D01*
X122247381Y-70627900D01*
X122267416Y-70627900D01*
X122286815Y-70629427D01*
X122306596Y-70632560D01*
X122350074Y-70628450D01*
X122361744Y-70627900D01*
X139186348Y-70627900D01*
X139253387Y-70647585D01*
X139274029Y-70664219D01*
X140511381Y-71901571D01*
X140544866Y-71962894D01*
X140547700Y-71989252D01*
X140547700Y-84651656D01*
X140545435Y-84672166D01*
X140547639Y-84742272D01*
X140547700Y-84746167D01*
X140547700Y-84773750D01*
X140548188Y-84777619D01*
X140548189Y-84777625D01*
X140548204Y-84777743D01*
X140549118Y-84789367D01*
X140550490Y-84833026D01*
X140556079Y-84852260D01*
X140560025Y-84871316D01*
X140562535Y-84891192D01*
X140578614Y-84931804D01*
X140582397Y-84942851D01*
X140594582Y-84984791D01*
X140604780Y-85002035D01*
X140613336Y-85019500D01*
X140620714Y-85038132D01*
X140620715Y-85038133D01*
X140646380Y-85073459D01*
X140652793Y-85083222D01*
X140675026Y-85120816D01*
X140675029Y-85120819D01*
X140675030Y-85120820D01*
X140689195Y-85134985D01*
X140701827Y-85149775D01*
X140713606Y-85165987D01*
X140747258Y-85193826D01*
X140755899Y-85201689D01*
X142855028Y-87300819D01*
X142888513Y-87362142D01*
X142883529Y-87431834D01*
X142841657Y-87487767D01*
X142776193Y-87512184D01*
X142767347Y-87512500D01*
X141633633Y-87512500D01*
X141566594Y-87492815D01*
X141534679Y-87463227D01*
X141481963Y-87393419D01*
X141331241Y-87256018D01*
X141157838Y-87148652D01*
X140967657Y-87074976D01*
X140868106Y-87056367D01*
X140767176Y-87037500D01*
X140563224Y-87037500D01*
X140462983Y-87056238D01*
X140362742Y-87074976D01*
X140172561Y-87148652D01*
X139999158Y-87256018D01*
X139848436Y-87393419D01*
X139725524Y-87556181D01*
X139634618Y-87738748D01*
X139578802Y-87934916D01*
X139559985Y-88137999D01*
X139578802Y-88341083D01*
X139634618Y-88537251D01*
X139725524Y-88719818D01*
X139848436Y-88882580D01*
X139999158Y-89019981D01*
X140172561Y-89127347D01*
X140172563Y-89127348D01*
X140362744Y-89201024D01*
X140563224Y-89238500D01*
X140563226Y-89238500D01*
X140767174Y-89238500D01*
X140767176Y-89238500D01*
X140967656Y-89201024D01*
X141157837Y-89127348D01*
X141331241Y-89019981D01*
X141481964Y-88882579D01*
X141534678Y-88812773D01*
X141590788Y-88771137D01*
X141633633Y-88763500D01*
X145186433Y-88763500D01*
X145253472Y-88783185D01*
X145299227Y-88835989D01*
X145309171Y-88905147D01*
X145305699Y-88921435D01*
X145268402Y-89052516D01*
X145249585Y-89255599D01*
X145268402Y-89458683D01*
X145324218Y-89654851D01*
X145415124Y-89837418D01*
X145538036Y-90000180D01*
X145688758Y-90137581D01*
X145862161Y-90244947D01*
X145862163Y-90244948D01*
X146052344Y-90318624D01*
X146252824Y-90356100D01*
X146252826Y-90356100D01*
X146456775Y-90356100D01*
X146456776Y-90356100D01*
X146488518Y-90350166D01*
X146558033Y-90357197D01*
X146598984Y-90384374D01*
X148546397Y-92331787D01*
X148559298Y-92347889D01*
X148561412Y-92349874D01*
X148561414Y-92349877D01*
X148608761Y-92394339D01*
X148610440Y-92395916D01*
X148613236Y-92398626D01*
X148632730Y-92418120D01*
X148635815Y-92420513D01*
X148635901Y-92420580D01*
X148644773Y-92428158D01*
X148676618Y-92458062D01*
X148694174Y-92467714D01*
X148710431Y-92478392D01*
X148726264Y-92490674D01*
X148742385Y-92497649D01*
X148766356Y-92508023D01*
X148776843Y-92513160D01*
X148815108Y-92534197D01*
X148834516Y-92539180D01*
X148852910Y-92545478D01*
X148871305Y-92553438D01*
X148914454Y-92560271D01*
X148925880Y-92562638D01*
X148941422Y-92566629D01*
X148968180Y-92573500D01*
X148968181Y-92573500D01*
X148988216Y-92573500D01*
X149007613Y-92575026D01*
X149027396Y-92578160D01*
X149070874Y-92574050D01*
X149082544Y-92573500D01*
X170402056Y-92573500D01*
X170422562Y-92575764D01*
X170425465Y-92575672D01*
X170425467Y-92575673D01*
X170492672Y-92573561D01*
X170496568Y-92573500D01*
X170520248Y-92573500D01*
X170524150Y-92573500D01*
X170528113Y-92572999D01*
X170539762Y-92572080D01*
X170583427Y-92570709D01*
X170602659Y-92565120D01*
X170621718Y-92561174D01*
X170628891Y-92560268D01*
X170641592Y-92558664D01*
X170682207Y-92542582D01*
X170693244Y-92538803D01*
X170735190Y-92526618D01*
X170752429Y-92516422D01*
X170769902Y-92507862D01*
X170788532Y-92500486D01*
X170823864Y-92474814D01*
X170833630Y-92468400D01*
X170871218Y-92446171D01*
X170871217Y-92446171D01*
X170871220Y-92446170D01*
X170885385Y-92432004D01*
X170900173Y-92419373D01*
X170916387Y-92407594D01*
X170944238Y-92373926D01*
X170952079Y-92365309D01*
X176710586Y-86606802D01*
X176726686Y-86593905D01*
X176728674Y-86591787D01*
X176728677Y-86591786D01*
X176774764Y-86542707D01*
X176777349Y-86540039D01*
X176796920Y-86520470D01*
X176799365Y-86517316D01*
X176806954Y-86508429D01*
X176836862Y-86476582D01*
X176846513Y-86459026D01*
X176857193Y-86442767D01*
X176869474Y-86426936D01*
X176886818Y-86386851D01*
X176891960Y-86376356D01*
X176900952Y-86360000D01*
X176912997Y-86338092D01*
X176917978Y-86318688D01*
X176924280Y-86300283D01*
X176932238Y-86281895D01*
X176939070Y-86238748D01*
X176941439Y-86227316D01*
X176952300Y-86185020D01*
X176952300Y-86164983D01*
X176953827Y-86145584D01*
X176956960Y-86125804D01*
X176952850Y-86082324D01*
X176952300Y-86070655D01*
X176952300Y-80030381D01*
X176971985Y-79963342D01*
X177024789Y-79917587D01*
X177093947Y-79907643D01*
X177157503Y-79936668D01*
X177187300Y-79975110D01*
X177266725Y-80134618D01*
X177389636Y-80297380D01*
X177540358Y-80434781D01*
X177633696Y-80492573D01*
X177713763Y-80542148D01*
X177903944Y-80615824D01*
X178104424Y-80653300D01*
X178194170Y-80653300D01*
X178261209Y-80672985D01*
X178281851Y-80689619D01*
X183202904Y-85610672D01*
X183236389Y-85671995D01*
X183231405Y-85741687D01*
X183214179Y-85773078D01*
X183210324Y-85778182D01*
X183119418Y-85960748D01*
X183063602Y-86156916D01*
X183044785Y-86359999D01*
X183063602Y-86563083D01*
X183119418Y-86759251D01*
X183210324Y-86941818D01*
X183333236Y-87104580D01*
X183483958Y-87241981D01*
X183607632Y-87318556D01*
X183657363Y-87349348D01*
X183847544Y-87423024D01*
X184048024Y-87460500D01*
X184048026Y-87460500D01*
X184251974Y-87460500D01*
X184251976Y-87460500D01*
X184452456Y-87423024D01*
X184642637Y-87349348D01*
X184816041Y-87241981D01*
X184966764Y-87104579D01*
X185089673Y-86941821D01*
X185089673Y-86941819D01*
X185089675Y-86941818D01*
X185170583Y-86779330D01*
X185180582Y-86759250D01*
X185236397Y-86563083D01*
X185255215Y-86360000D01*
X185236397Y-86156917D01*
X185233172Y-86145584D01*
X185205758Y-86049233D01*
X185180582Y-85960750D01*
X185152908Y-85905173D01*
X185089675Y-85778181D01*
X184966762Y-85615418D01*
X184944957Y-85595540D01*
X184908676Y-85535828D01*
X184904968Y-85514710D01*
X184900972Y-85469029D01*
X184900500Y-85458223D01*
X184900500Y-85456301D01*
X184900500Y-85452691D01*
X184896903Y-85421920D01*
X184896536Y-85418329D01*
X184892096Y-85367571D01*
X184889999Y-85343603D01*
X184889998Y-85343601D01*
X184889889Y-85342349D01*
X184885672Y-85323330D01*
X184879140Y-85305384D01*
X184859591Y-85251673D01*
X184858408Y-85248268D01*
X184841602Y-85197552D01*
X184834814Y-85177066D01*
X184834812Y-85177063D01*
X184834415Y-85175864D01*
X184825929Y-85158336D01*
X184825237Y-85157284D01*
X184825237Y-85157283D01*
X184784001Y-85094588D01*
X184782086Y-85091581D01*
X184749119Y-85038133D01*
X184742712Y-85027745D01*
X184742711Y-85027744D01*
X184742048Y-85026669D01*
X184729748Y-85011570D01*
X184674272Y-84959231D01*
X184671685Y-84956718D01*
X179347751Y-79632783D01*
X179314266Y-79571460D01*
X179311961Y-79556542D01*
X179311614Y-79552803D01*
X179311615Y-79552800D01*
X179292797Y-79349717D01*
X179286022Y-79325907D01*
X179244013Y-79178262D01*
X179236982Y-79153550D01*
X179197978Y-79075218D01*
X179146073Y-78970978D01*
X179134345Y-78955447D01*
X179109654Y-78890086D01*
X179109300Y-78880722D01*
X179109300Y-78030099D01*
X179128985Y-77963060D01*
X179181789Y-77917305D01*
X179233300Y-77906099D01*
X179253361Y-77906099D01*
X179256672Y-77906099D01*
X179316283Y-77899691D01*
X179451131Y-77849396D01*
X179566346Y-77763146D01*
X179652596Y-77647931D01*
X179702891Y-77513083D01*
X179709300Y-77453473D01*
X179709299Y-75657728D01*
X179702891Y-75598117D01*
X179652596Y-75463269D01*
X179566346Y-75348054D01*
X179451131Y-75261804D01*
X179359597Y-75227664D01*
X179319716Y-75212789D01*
X179263783Y-75170917D01*
X179239366Y-75105453D01*
X179254218Y-75037180D01*
X179275363Y-75008932D01*
X179397295Y-74887001D01*
X179532835Y-74693430D01*
X179632703Y-74479263D01*
X179693863Y-74251008D01*
X179714459Y-74015600D01*
X179693863Y-73780192D01*
X179632703Y-73551937D01*
X179532835Y-73337771D01*
X179397295Y-73144199D01*
X179230201Y-72977105D01*
X179044639Y-72847173D01*
X179001015Y-72792597D01*
X178993823Y-72723098D01*
X179025345Y-72660744D01*
X179044631Y-72644032D01*
X179230201Y-72514095D01*
X179397295Y-72347001D01*
X179532835Y-72153430D01*
X179632703Y-71939263D01*
X179693863Y-71711008D01*
X179714459Y-71475600D01*
X179693863Y-71240192D01*
X179632703Y-71011937D01*
X179532835Y-70797771D01*
X179397295Y-70604199D01*
X179230201Y-70437105D01*
X179044202Y-70306867D01*
X179000580Y-70252292D01*
X178993387Y-70182793D01*
X179024909Y-70120439D01*
X179044205Y-70103719D01*
X179229878Y-69973709D01*
X179396906Y-69806681D01*
X179532400Y-69613176D01*
X179632230Y-69399092D01*
X179689436Y-69185600D01*
X178792486Y-69185600D01*
X178818293Y-69145444D01*
X178858800Y-69007489D01*
X178858800Y-68863711D01*
X178818293Y-68725756D01*
X178792486Y-68685600D01*
X179689436Y-68685600D01*
X179689435Y-68685599D01*
X179632230Y-68472107D01*
X179532399Y-68258021D01*
X179396909Y-68064521D01*
X179229881Y-67897493D01*
X179036376Y-67761999D01*
X178822292Y-67662169D01*
X178608800Y-67604964D01*
X178608800Y-68500098D01*
X178501115Y-68450920D01*
X178394563Y-68435600D01*
X178323037Y-68435600D01*
X178216485Y-68450920D01*
X178108800Y-68500098D01*
X178108800Y-67604964D01*
X178108799Y-67604964D01*
X177895307Y-67662169D01*
X177681221Y-67762000D01*
X177487721Y-67897490D01*
X177320690Y-68064521D01*
X177185200Y-68258021D01*
X177085369Y-68472107D01*
X177028164Y-68685599D01*
X177028164Y-68685600D01*
X177925114Y-68685600D01*
X177899307Y-68725756D01*
X177858800Y-68863711D01*
X177858800Y-69007489D01*
X177899307Y-69145444D01*
X177925114Y-69185600D01*
X177028164Y-69185600D01*
X177085369Y-69399092D01*
X177185199Y-69613176D01*
X177320693Y-69806681D01*
X177487718Y-69973706D01*
X177673395Y-70103719D01*
X177717019Y-70158296D01*
X177724212Y-70227795D01*
X177692690Y-70290149D01*
X177673395Y-70306869D01*
X177487395Y-70437108D01*
X177320305Y-70604198D01*
X177185149Y-70797223D01*
X177130572Y-70840848D01*
X177083574Y-70850100D01*
X176637252Y-70850100D01*
X176570213Y-70830415D01*
X176549571Y-70813781D01*
X173437551Y-67701760D01*
X173404066Y-67640437D01*
X173402354Y-67630721D01*
X173396075Y-67584360D01*
X173326517Y-67370285D01*
X173326517Y-67370284D01*
X173219852Y-67172067D01*
X173096444Y-67017319D01*
X173079509Y-66996083D01*
X173071116Y-66988750D01*
X173035488Y-66957622D01*
X172997955Y-66898692D01*
X172998241Y-66828823D01*
X173027448Y-66778551D01*
X173037249Y-66768300D01*
X173153632Y-66646573D01*
X173197618Y-66579936D01*
X173250978Y-66534832D01*
X173301105Y-66524248D01*
X173837750Y-66524248D01*
X173845237Y-66524474D01*
X173901625Y-66527885D01*
X173901625Y-66527884D01*
X173901627Y-66527885D01*
X173957195Y-66517701D01*
X173964596Y-66516574D01*
X174020681Y-66509765D01*
X174029006Y-66506607D01*
X174050638Y-66500576D01*
X174059396Y-66498972D01*
X174110941Y-66475772D01*
X174117819Y-66472924D01*
X174170656Y-66452887D01*
X174177993Y-66447821D01*
X174197533Y-66436801D01*
X174205663Y-66433143D01*
X174250153Y-66398286D01*
X174256161Y-66393865D01*
X174302661Y-66361770D01*
X174340132Y-66319472D01*
X174345234Y-66314052D01*
X174694304Y-65964982D01*
X174699724Y-65959880D01*
X174742022Y-65922409D01*
X174774117Y-65875909D01*
X174778525Y-65869917D01*
X174813395Y-65825411D01*
X174817050Y-65817286D01*
X174828077Y-65797735D01*
X174833139Y-65790404D01*
X174853177Y-65737563D01*
X174856032Y-65730672D01*
X174879225Y-65679144D01*
X174880831Y-65670377D01*
X174886859Y-65648754D01*
X174890017Y-65640429D01*
X174896825Y-65584350D01*
X174897951Y-65576950D01*
X174908137Y-65521373D01*
X174904726Y-65464984D01*
X174904500Y-65457497D01*
X174904500Y-64758319D01*
X174924185Y-64691280D01*
X174976989Y-64645525D01*
X175046147Y-64635581D01*
X175109703Y-64664606D01*
X175130071Y-64687191D01*
X175140174Y-64701620D01*
X175296380Y-64857826D01*
X175477338Y-64984534D01*
X175677550Y-65077894D01*
X175890932Y-65135070D01*
X176111000Y-65154323D01*
X176331068Y-65135070D01*
X176544450Y-65077894D01*
X176744662Y-64984534D01*
X176925620Y-64857826D01*
X177023322Y-64760123D01*
X177084641Y-64726641D01*
X177154333Y-64731625D01*
X177198676Y-64760122D01*
X177296380Y-64857826D01*
X177477338Y-64984534D01*
X177677550Y-65077894D01*
X177890932Y-65135070D01*
X178111000Y-65154323D01*
X178331068Y-65135070D01*
X178544450Y-65077894D01*
X178744662Y-64984534D01*
X178925620Y-64857826D01*
X179023322Y-64760123D01*
X179084641Y-64726641D01*
X179154333Y-64731625D01*
X179198676Y-64760122D01*
X179296380Y-64857826D01*
X179477338Y-64984534D01*
X179677550Y-65077894D01*
X179890932Y-65135070D01*
X180111000Y-65154323D01*
X180331068Y-65135070D01*
X180544450Y-65077894D01*
X180744662Y-64984534D01*
X180925620Y-64857826D01*
X181081826Y-64701620D01*
X181208534Y-64520662D01*
X181301894Y-64320450D01*
X181359070Y-64107068D01*
X181378323Y-63887000D01*
X184843676Y-63887000D01*
X184862929Y-64107065D01*
X184920106Y-64320451D01*
X184948658Y-64381680D01*
X185013466Y-64520662D01*
X185140174Y-64701620D01*
X185296380Y-64857826D01*
X185477338Y-64984534D01*
X185677550Y-65077894D01*
X185890932Y-65135070D01*
X186111000Y-65154323D01*
X186331068Y-65135070D01*
X186544450Y-65077894D01*
X186744662Y-64984534D01*
X186925620Y-64857826D01*
X187023322Y-64760123D01*
X187084641Y-64726641D01*
X187154333Y-64731625D01*
X187198676Y-64760122D01*
X187296380Y-64857826D01*
X187477338Y-64984534D01*
X187677550Y-65077894D01*
X187890932Y-65135070D01*
X188111000Y-65154323D01*
X188331068Y-65135070D01*
X188544450Y-65077894D01*
X188744662Y-64984534D01*
X188925620Y-64857826D01*
X189081826Y-64701620D01*
X189208534Y-64520662D01*
X189301894Y-64320450D01*
X189359070Y-64107068D01*
X189378323Y-63887000D01*
X189359070Y-63666932D01*
X189301894Y-63453550D01*
X189208534Y-63253339D01*
X189081826Y-63072380D01*
X188925620Y-62916174D01*
X188744662Y-62789466D01*
X188673327Y-62756202D01*
X188544451Y-62696106D01*
X188331065Y-62638929D01*
X188111000Y-62619676D01*
X187890934Y-62638929D01*
X187677548Y-62696106D01*
X187477338Y-62789466D01*
X187296379Y-62916174D01*
X187198681Y-63013873D01*
X187137358Y-63047358D01*
X187067666Y-63042374D01*
X187023319Y-63013873D01*
X186925620Y-62916174D01*
X186744662Y-62789466D01*
X186544451Y-62696106D01*
X186331065Y-62638929D01*
X186111000Y-62619676D01*
X185890934Y-62638929D01*
X185677548Y-62696106D01*
X185477338Y-62789466D01*
X185296379Y-62916174D01*
X185140174Y-63072379D01*
X185013466Y-63253338D01*
X184920106Y-63453548D01*
X184862929Y-63666934D01*
X184843676Y-63887000D01*
X181378323Y-63887000D01*
X181359070Y-63666932D01*
X181301894Y-63453550D01*
X181208534Y-63253339D01*
X181081826Y-63072380D01*
X180925620Y-62916174D01*
X180744662Y-62789466D01*
X180673327Y-62756202D01*
X180544451Y-62696106D01*
X180331065Y-62638929D01*
X180111000Y-62619676D01*
X179890934Y-62638929D01*
X179677548Y-62696106D01*
X179477338Y-62789466D01*
X179296379Y-62916174D01*
X179198681Y-63013873D01*
X179137358Y-63047358D01*
X179067666Y-63042374D01*
X179023319Y-63013873D01*
X178925620Y-62916174D01*
X178744662Y-62789466D01*
X178544451Y-62696106D01*
X178331065Y-62638929D01*
X178111000Y-62619676D01*
X177890934Y-62638929D01*
X177677548Y-62696106D01*
X177477338Y-62789466D01*
X177296379Y-62916174D01*
X177198681Y-63013873D01*
X177137358Y-63047358D01*
X177067666Y-63042374D01*
X177023319Y-63013873D01*
X176925620Y-62916174D01*
X176744662Y-62789466D01*
X176544451Y-62696106D01*
X176331065Y-62638929D01*
X176111000Y-62619676D01*
X175890934Y-62638929D01*
X175677548Y-62696106D01*
X175477338Y-62789466D01*
X175296379Y-62916174D01*
X175140176Y-63072377D01*
X175140175Y-63072379D01*
X175140174Y-63072380D01*
X175130073Y-63086805D01*
X175075497Y-63130429D01*
X175005999Y-63137621D01*
X174943644Y-63106099D01*
X174908231Y-63045869D01*
X174904500Y-63015680D01*
X174904500Y-62964890D01*
X174904726Y-62957404D01*
X174908136Y-62901027D01*
X174897951Y-62845456D01*
X174896826Y-62838056D01*
X174890017Y-62781971D01*
X174886856Y-62773639D01*
X174880828Y-62752011D01*
X174879224Y-62743255D01*
X174870551Y-62723986D01*
X174856035Y-62691734D01*
X174853176Y-62684831D01*
X174847533Y-62669952D01*
X174833139Y-62631996D01*
X174828077Y-62624662D01*
X174817050Y-62605111D01*
X174813395Y-62596989D01*
X174778539Y-62552499D01*
X174774120Y-62546493D01*
X174742022Y-62499991D01*
X174742021Y-62499989D01*
X174699742Y-62462534D01*
X174694288Y-62457400D01*
X174321398Y-62084510D01*
X174316279Y-62079073D01*
X174278809Y-62036778D01*
X174278808Y-62036777D01*
X174278807Y-62036776D01*
X174252471Y-62018598D01*
X174232312Y-62004683D01*
X174226290Y-62000252D01*
X174226287Y-62000250D01*
X174217693Y-61993516D01*
X174181811Y-61965404D01*
X174173682Y-61961746D01*
X174154138Y-61950723D01*
X174146805Y-61945662D01*
X174146804Y-61945661D01*
X174093976Y-61925626D01*
X174087063Y-61922762D01*
X174035544Y-61899576D01*
X174026780Y-61897970D01*
X174005161Y-61891943D01*
X173999659Y-61889856D01*
X173996827Y-61888782D01*
X173940740Y-61881972D01*
X173933337Y-61880845D01*
X173877774Y-61870663D01*
X173877773Y-61870663D01*
X173824212Y-61873902D01*
X173821385Y-61874074D01*
X173813898Y-61874300D01*
X165072902Y-61874300D01*
X165065415Y-61874074D01*
X165062587Y-61873902D01*
X165009027Y-61870663D01*
X165009026Y-61870663D01*
X164953463Y-61880845D01*
X164946060Y-61881972D01*
X164889966Y-61888783D01*
X164881632Y-61891944D01*
X164860025Y-61897968D01*
X164851257Y-61899575D01*
X164799742Y-61922760D01*
X164792823Y-61925626D01*
X164739991Y-61945662D01*
X164732653Y-61950727D01*
X164713122Y-61961743D01*
X164704993Y-61965402D01*
X164660511Y-62000250D01*
X164654482Y-62004685D01*
X164607993Y-62036775D01*
X164570535Y-62079056D01*
X164565402Y-62084508D01*
X163582908Y-63067002D01*
X163577456Y-63072135D01*
X163535175Y-63109593D01*
X163503085Y-63156082D01*
X163498650Y-63162111D01*
X163466423Y-63203248D01*
X163463802Y-63206593D01*
X163460143Y-63214722D01*
X163449127Y-63234253D01*
X163444062Y-63241591D01*
X163424026Y-63294423D01*
X163421160Y-63301342D01*
X163397975Y-63352857D01*
X163396368Y-63361625D01*
X163390344Y-63383232D01*
X163387183Y-63391566D01*
X163380372Y-63447660D01*
X163379245Y-63455063D01*
X163369701Y-63507148D01*
X163369063Y-63510627D01*
X163370443Y-63533446D01*
X163372474Y-63567014D01*
X163372700Y-63574501D01*
X163372700Y-86277680D01*
X163353015Y-86344719D01*
X163319824Y-86379255D01*
X163270537Y-86413766D01*
X163161801Y-86489904D01*
X163161795Y-86489908D01*
X162994705Y-86656998D01*
X162864775Y-86842559D01*
X162810198Y-86886184D01*
X162740700Y-86893378D01*
X162678345Y-86861855D01*
X162661625Y-86842559D01*
X162617352Y-86779330D01*
X162531695Y-86656999D01*
X162364601Y-86489905D01*
X162341012Y-86473388D01*
X162296575Y-86442272D01*
X162252951Y-86387695D01*
X162243700Y-86340698D01*
X162243700Y-79464105D01*
X162245009Y-79446135D01*
X162245180Y-79444964D01*
X162248489Y-79422377D01*
X162244171Y-79373033D01*
X162243700Y-79362227D01*
X162243700Y-79360301D01*
X162243700Y-79356691D01*
X162240098Y-79325878D01*
X162239734Y-79322315D01*
X162233088Y-79246342D01*
X162228873Y-79227330D01*
X162202777Y-79155634D01*
X162201614Y-79152290D01*
X162178013Y-79081065D01*
X162178010Y-79081060D01*
X162177611Y-79079856D01*
X162169130Y-79062338D01*
X162168438Y-79061286D01*
X162168437Y-79061283D01*
X162127181Y-78998557D01*
X162125298Y-78995601D01*
X162085911Y-78931744D01*
X162085909Y-78931742D01*
X162085246Y-78930667D01*
X162072948Y-78915570D01*
X162017473Y-78863232D01*
X162014886Y-78860719D01*
X161123549Y-77969381D01*
X161090064Y-77908058D01*
X161095048Y-77838366D01*
X161136920Y-77782433D01*
X161202384Y-77758016D01*
X161211230Y-77757700D01*
X161391974Y-77757700D01*
X161391976Y-77757700D01*
X161592456Y-77720224D01*
X161782637Y-77646548D01*
X161956041Y-77539181D01*
X162050059Y-77453472D01*
X162106763Y-77401780D01*
X162113735Y-77392548D01*
X162229673Y-77239021D01*
X162229673Y-77239019D01*
X162229675Y-77239018D01*
X162286026Y-77125848D01*
X162320582Y-77056450D01*
X162376397Y-76860283D01*
X162395215Y-76657200D01*
X162381875Y-76513243D01*
X162395290Y-76444677D01*
X162417662Y-76414127D01*
X162689789Y-76142000D01*
X162705885Y-76129106D01*
X162707873Y-76126987D01*
X162707877Y-76126986D01*
X162753949Y-76077923D01*
X162756534Y-76075255D01*
X162776120Y-76055671D01*
X162778585Y-76052492D01*
X162786167Y-76043616D01*
X162791626Y-76037803D01*
X162816062Y-76011782D01*
X162825712Y-75994227D01*
X162836400Y-75977957D01*
X162848671Y-75962138D01*
X162848673Y-75962136D01*
X162866026Y-75922032D01*
X162871157Y-75911562D01*
X162892197Y-75873292D01*
X162897175Y-75853899D01*
X162903481Y-75835482D01*
X162905154Y-75831616D01*
X162911438Y-75817096D01*
X162918272Y-75773945D01*
X162920635Y-75762531D01*
X162931500Y-75720219D01*
X162931500Y-75700182D01*
X162933027Y-75680784D01*
X162936160Y-75661004D01*
X162932050Y-75617524D01*
X162931500Y-75605855D01*
X162931500Y-65106740D01*
X162933763Y-65086239D01*
X162933543Y-65079248D01*
X162931561Y-65016144D01*
X162931500Y-65012250D01*
X162931500Y-64988544D01*
X162931500Y-64984650D01*
X162930998Y-64980681D01*
X162930080Y-64969024D01*
X162928709Y-64925373D01*
X162923120Y-64906140D01*
X162919174Y-64887082D01*
X162916664Y-64867206D01*
X162900588Y-64826604D01*
X162896804Y-64815553D01*
X162886053Y-64778551D01*
X162884618Y-64773610D01*
X162874414Y-64756355D01*
X162865861Y-64738895D01*
X162858486Y-64720268D01*
X162832808Y-64684925D01*
X162826401Y-64675171D01*
X162820153Y-64664606D01*
X162804170Y-64637580D01*
X162790006Y-64623416D01*
X162777367Y-64608617D01*
X162765595Y-64592413D01*
X162731941Y-64564573D01*
X162723299Y-64556709D01*
X162316065Y-64149474D01*
X162282580Y-64088151D01*
X162280275Y-64050357D01*
X162293615Y-63906400D01*
X162274797Y-63703317D01*
X162264444Y-63666932D01*
X162226464Y-63533446D01*
X162218982Y-63507150D01*
X162179369Y-63427596D01*
X162128075Y-63324581D01*
X162005163Y-63161819D01*
X161854441Y-63024418D01*
X161681038Y-62917052D01*
X161490857Y-62843376D01*
X161424029Y-62830884D01*
X161290376Y-62805900D01*
X161086424Y-62805900D01*
X160986183Y-62824638D01*
X160885942Y-62843376D01*
X160695761Y-62917052D01*
X160522358Y-63024418D01*
X160363144Y-63169562D01*
X160360485Y-63166645D01*
X160321457Y-63195609D01*
X160278607Y-63203248D01*
X158146499Y-63203248D01*
X158079460Y-63183563D01*
X158033705Y-63130759D01*
X158022499Y-63079248D01*
X158022499Y-63069187D01*
X158022499Y-63065876D01*
X158016091Y-63006265D01*
X157965796Y-62871417D01*
X157879546Y-62756202D01*
X157764331Y-62669952D01*
X157629483Y-62619657D01*
X157629482Y-62619656D01*
X157573166Y-62613602D01*
X157573165Y-62613601D01*
X157569873Y-62613248D01*
X157566550Y-62613248D01*
X154977439Y-62613248D01*
X154977420Y-62613248D01*
X154974128Y-62613249D01*
X154970848Y-62613601D01*
X154970840Y-62613602D01*
X154914515Y-62619657D01*
X154779669Y-62669952D01*
X154664454Y-62756202D01*
X154578204Y-62871416D01*
X154527910Y-63006263D01*
X154527909Y-63006265D01*
X154521500Y-63065875D01*
X154521500Y-63069196D01*
X154521500Y-63069197D01*
X154521500Y-64658308D01*
X154521500Y-64658326D01*
X154521501Y-64661620D01*
X154521853Y-64664900D01*
X154521854Y-64664907D01*
X154527909Y-64721232D01*
X154547445Y-64773610D01*
X154578204Y-64856079D01*
X154664453Y-64971292D01*
X154664455Y-64971295D01*
X154703596Y-65000596D01*
X154745468Y-65056529D01*
X154750452Y-65126221D01*
X154732774Y-65168173D01*
X154666364Y-65268780D01*
X154577896Y-65475760D01*
X154527809Y-65695210D01*
X154517709Y-65920076D01*
X154547925Y-66143136D01*
X154605766Y-66321153D01*
X154617483Y-66357212D01*
X154724148Y-66555429D01*
X154864492Y-66731414D01*
X154908510Y-66769872D01*
X154946044Y-66828803D01*
X154945758Y-66898672D01*
X154916552Y-66948943D01*
X154790368Y-67080922D01*
X154666365Y-67268779D01*
X154577896Y-67475760D01*
X154527809Y-67695210D01*
X154517709Y-67920076D01*
X154547925Y-68143136D01*
X154595505Y-68289573D01*
X154617483Y-68357212D01*
X154724148Y-68555429D01*
X154864492Y-68731414D01*
X154908510Y-68769872D01*
X154946044Y-68828803D01*
X154945758Y-68898672D01*
X154916552Y-68948943D01*
X154790368Y-69080922D01*
X154666365Y-69268779D01*
X154577896Y-69475760D01*
X154527809Y-69695210D01*
X154517709Y-69920076D01*
X154547925Y-70143136D01*
X154601125Y-70306869D01*
X154617483Y-70357212D01*
X154724148Y-70555429D01*
X154864492Y-70731414D01*
X154908510Y-70769872D01*
X154946044Y-70828803D01*
X154945758Y-70898672D01*
X154916552Y-70948943D01*
X154790368Y-71080922D01*
X154723279Y-71182559D01*
X154669919Y-71227664D01*
X154619792Y-71238248D01*
X154317801Y-71238248D01*
X154250762Y-71218563D01*
X154230120Y-71201929D01*
X154179419Y-71151228D01*
X154145934Y-71089905D01*
X154143100Y-71063547D01*
X154143100Y-60737943D01*
X154145364Y-60717439D01*
X154143161Y-60647326D01*
X154143100Y-60643431D01*
X154143100Y-60619740D01*
X154143100Y-60615850D01*
X154142598Y-60611877D01*
X154141680Y-60600218D01*
X154140309Y-60556573D01*
X154134720Y-60537340D01*
X154130774Y-60518282D01*
X154128264Y-60498406D01*
X154112188Y-60457804D01*
X154108404Y-60446753D01*
X154102481Y-60426368D01*
X154096218Y-60404810D01*
X154086014Y-60387555D01*
X154077461Y-60370095D01*
X154070086Y-60351469D01*
X154070086Y-60351468D01*
X154044408Y-60316125D01*
X154038001Y-60306371D01*
X154015769Y-60268779D01*
X154001606Y-60254616D01*
X153988967Y-60239817D01*
X153977195Y-60223613D01*
X153943541Y-60195773D01*
X153934899Y-60187909D01*
X153746989Y-59999999D01*
X189644551Y-59999999D01*
X189664317Y-60251149D01*
X189723126Y-60496110D01*
X189740207Y-60537346D01*
X189819534Y-60728859D01*
X189951164Y-60943659D01*
X190114776Y-61135224D01*
X190306341Y-61298836D01*
X190521141Y-61430466D01*
X190753889Y-61526873D01*
X190998852Y-61585683D01*
X191187118Y-61600500D01*
X191189563Y-61600500D01*
X191310437Y-61600500D01*
X191312882Y-61600500D01*
X191501148Y-61585683D01*
X191746111Y-61526873D01*
X191978859Y-61430466D01*
X192193659Y-61298836D01*
X192385224Y-61135224D01*
X192548836Y-60943659D01*
X192680466Y-60728859D01*
X192776873Y-60496111D01*
X192835683Y-60251148D01*
X192855449Y-60000000D01*
X192835683Y-59748852D01*
X192776873Y-59503889D01*
X192680466Y-59271141D01*
X192548836Y-59056341D01*
X192385224Y-58864776D01*
X192193659Y-58701164D01*
X191978859Y-58569534D01*
X191862485Y-58521330D01*
X191746110Y-58473126D01*
X191501149Y-58414317D01*
X191315316Y-58399691D01*
X191315301Y-58399690D01*
X191312882Y-58399500D01*
X191187118Y-58399500D01*
X191184699Y-58399690D01*
X191184683Y-58399691D01*
X190998850Y-58414317D01*
X190753889Y-58473126D01*
X190521139Y-58569535D01*
X190306342Y-58701163D01*
X190114776Y-58864776D01*
X189951163Y-59056342D01*
X189819535Y-59271139D01*
X189723126Y-59503889D01*
X189664317Y-59748850D01*
X189644551Y-59999999D01*
X153746989Y-59999999D01*
X153002402Y-59255411D01*
X152989506Y-59239313D01*
X152938375Y-59191298D01*
X152935578Y-59188587D01*
X152918827Y-59171836D01*
X152916071Y-59169080D01*
X152912890Y-59166612D01*
X152904022Y-59159037D01*
X152872182Y-59129138D01*
X152854624Y-59119485D01*
X152838364Y-59108804D01*
X152822536Y-59096527D01*
X152782451Y-59079180D01*
X152771961Y-59074041D01*
X152733691Y-59053002D01*
X152714291Y-59048021D01*
X152695884Y-59041719D01*
X152677497Y-59033762D01*
X152634358Y-59026929D01*
X152622924Y-59024561D01*
X152580619Y-59013700D01*
X152560584Y-59013700D01*
X152541186Y-59012173D01*
X152533762Y-59010997D01*
X152521405Y-59009040D01*
X152521404Y-59009040D01*
X152488351Y-59012164D01*
X152477925Y-59013150D01*
X152466256Y-59013700D01*
X121110433Y-59013700D01*
X121043394Y-58994015D01*
X121011479Y-58964427D01*
X120958763Y-58894619D01*
X120808041Y-58757218D01*
X120634638Y-58649852D01*
X120444457Y-58576176D01*
X120377629Y-58563684D01*
X120243976Y-58538700D01*
X120040024Y-58538700D01*
X119939783Y-58557438D01*
X119839542Y-58576176D01*
X119649361Y-58649852D01*
X119475958Y-58757218D01*
X119325236Y-58894619D01*
X119202324Y-59057381D01*
X119111418Y-59239948D01*
X119055602Y-59436116D01*
X119036785Y-59639199D01*
X119055602Y-59842283D01*
X119111418Y-60038451D01*
X119202324Y-60221018D01*
X119325236Y-60383780D01*
X119475958Y-60521181D01*
X119649361Y-60628547D01*
X119649363Y-60628548D01*
X119839544Y-60702224D01*
X120040024Y-60739700D01*
X120040026Y-60739700D01*
X120243974Y-60739700D01*
X120243976Y-60739700D01*
X120444456Y-60702224D01*
X120634637Y-60628548D01*
X120808041Y-60521181D01*
X120814378Y-60515403D01*
X120877180Y-60484787D01*
X120946567Y-60492984D01*
X121000508Y-60537393D01*
X121021877Y-60603914D01*
X121021387Y-60618481D01*
X121017985Y-60655198D01*
X121036802Y-60858283D01*
X121092618Y-61054451D01*
X121183524Y-61237018D01*
X121306436Y-61399780D01*
X121457158Y-61537181D01*
X121630561Y-61644547D01*
X121630563Y-61644548D01*
X121820744Y-61718224D01*
X122021224Y-61755700D01*
X122021226Y-61755700D01*
X122225174Y-61755700D01*
X122225176Y-61755700D01*
X122425656Y-61718224D01*
X122615837Y-61644548D01*
X122789241Y-61537181D01*
X122939964Y-61399779D01*
X122992678Y-61329973D01*
X123048788Y-61288337D01*
X123091633Y-61280700D01*
X151581548Y-61280700D01*
X151648587Y-61300385D01*
X151669228Y-61317018D01*
X151839782Y-61487572D01*
X151873266Y-61548893D01*
X151876100Y-61575251D01*
X151876100Y-74593256D01*
X151873835Y-74613766D01*
X151876039Y-74683872D01*
X151876100Y-74687767D01*
X151876100Y-74715350D01*
X151876588Y-74719219D01*
X151876589Y-74719225D01*
X151876604Y-74719343D01*
X151877518Y-74730967D01*
X151878890Y-74774626D01*
X151884479Y-74793860D01*
X151888425Y-74812916D01*
X151890935Y-74832792D01*
X151907014Y-74873404D01*
X151910797Y-74884451D01*
X151922982Y-74926391D01*
X151933180Y-74943635D01*
X151941736Y-74961100D01*
X151949114Y-74979732D01*
X151949115Y-74979733D01*
X151974780Y-75015059D01*
X151981193Y-75024822D01*
X152003426Y-75062416D01*
X152003429Y-75062419D01*
X152003430Y-75062420D01*
X152017595Y-75076585D01*
X152030227Y-75091375D01*
X152042006Y-75107587D01*
X152075658Y-75135426D01*
X152084299Y-75143289D01*
X153188544Y-76247535D01*
X153201444Y-76263636D01*
X153252571Y-76311648D01*
X153255368Y-76314359D01*
X153274877Y-76333868D01*
X153278057Y-76336335D01*
X153286919Y-76343903D01*
X153318766Y-76373810D01*
X153336318Y-76383459D01*
X153352586Y-76394145D01*
X153368412Y-76406421D01*
X153408494Y-76423765D01*
X153418981Y-76428903D01*
X153457255Y-76449945D01*
X153465758Y-76452127D01*
X153476656Y-76454926D01*
X153495061Y-76461226D01*
X153513452Y-76469185D01*
X153556598Y-76476018D01*
X153568016Y-76478383D01*
X153610329Y-76489248D01*
X153630364Y-76489248D01*
X153649763Y-76490775D01*
X153669544Y-76493908D01*
X153713022Y-76489798D01*
X153724692Y-76489248D01*
X154614448Y-76489248D01*
X154681487Y-76508933D01*
X154716756Y-76547048D01*
X154717189Y-76546703D01*
X154721882Y-76552587D01*
X154723644Y-76554492D01*
X154724148Y-76555430D01*
X154856760Y-76721719D01*
X154864492Y-76731414D01*
X154908510Y-76769872D01*
X154946044Y-76828803D01*
X154945758Y-76898672D01*
X154916552Y-76948943D01*
X154796089Y-77074939D01*
X154735533Y-77109792D01*
X154706462Y-77113248D01*
X153854028Y-77113248D01*
X153786989Y-77093563D01*
X153770490Y-77080885D01*
X153675641Y-76994418D01*
X153502238Y-76887052D01*
X153312057Y-76813376D01*
X153245229Y-76800884D01*
X153111576Y-76775900D01*
X152907624Y-76775900D01*
X152807383Y-76794638D01*
X152707142Y-76813376D01*
X152516961Y-76887052D01*
X152343558Y-76994418D01*
X152192836Y-77131819D01*
X152069924Y-77294581D01*
X151979018Y-77477148D01*
X151923202Y-77673316D01*
X151904385Y-77876400D01*
X151923202Y-78079483D01*
X151979018Y-78275651D01*
X152069924Y-78458218D01*
X152192836Y-78620980D01*
X152343558Y-78758381D01*
X152516961Y-78865747D01*
X152516963Y-78865748D01*
X152707144Y-78939424D01*
X152907624Y-78976900D01*
X152907626Y-78976900D01*
X153111574Y-78976900D01*
X153111576Y-78976900D01*
X153312056Y-78939424D01*
X153502237Y-78865748D01*
X153675641Y-78758381D01*
X153784369Y-78659263D01*
X153847173Y-78628646D01*
X153867907Y-78626900D01*
X154721429Y-78626900D01*
X154788468Y-78646585D01*
X154818376Y-78673587D01*
X154864492Y-78731414D01*
X155034004Y-78879513D01*
X155086338Y-78910781D01*
X155227237Y-78994964D01*
X155377847Y-79051488D01*
X155437976Y-79074055D01*
X155659453Y-79114248D01*
X156825378Y-79114248D01*
X156828155Y-79114248D01*
X156996188Y-79099125D01*
X157213170Y-79039241D01*
X157415973Y-78941577D01*
X157598078Y-78809270D01*
X157735816Y-78665206D01*
X157796371Y-78630356D01*
X157825441Y-78626900D01*
X159606970Y-78626900D01*
X159674009Y-78646585D01*
X159694651Y-78663219D01*
X160706381Y-79674948D01*
X160739866Y-79736271D01*
X160742700Y-79762629D01*
X160742700Y-86340698D01*
X160723015Y-86407737D01*
X160689825Y-86442272D01*
X160621797Y-86489906D01*
X160454705Y-86656998D01*
X160324775Y-86842559D01*
X160270198Y-86886184D01*
X160200700Y-86893378D01*
X160138345Y-86861855D01*
X160121625Y-86842559D01*
X160077352Y-86779330D01*
X159991695Y-86656999D01*
X159824601Y-86489905D01*
X159801012Y-86473388D01*
X159756575Y-86442272D01*
X159712951Y-86387695D01*
X159703700Y-86340698D01*
X159703700Y-85340138D01*
X159723385Y-85273099D01*
X159744162Y-85248501D01*
X159769963Y-85224980D01*
X159790676Y-85197552D01*
X159892873Y-85062221D01*
X159892873Y-85062219D01*
X159892875Y-85062218D01*
X159951032Y-84945421D01*
X159983782Y-84879650D01*
X160039597Y-84683483D01*
X160058415Y-84480400D01*
X160039597Y-84277317D01*
X159983782Y-84081150D01*
X159962412Y-84038233D01*
X159892875Y-83898581D01*
X159769963Y-83735819D01*
X159619241Y-83598418D01*
X159445838Y-83491052D01*
X159255657Y-83417376D01*
X159188829Y-83404884D01*
X159055176Y-83379900D01*
X158851224Y-83379900D01*
X158750983Y-83398638D01*
X158650742Y-83417376D01*
X158460561Y-83491052D01*
X158287158Y-83598418D01*
X158136436Y-83735819D01*
X158013524Y-83898581D01*
X157922618Y-84081148D01*
X157866802Y-84277316D01*
X157847985Y-84480399D01*
X157866802Y-84683483D01*
X157922618Y-84879651D01*
X158013524Y-85062218D01*
X158136436Y-85224980D01*
X158162238Y-85248501D01*
X158198520Y-85308212D01*
X158202700Y-85340138D01*
X158202700Y-86340698D01*
X158183015Y-86407737D01*
X158149825Y-86442272D01*
X158081800Y-86489904D01*
X157959485Y-86612219D01*
X157898162Y-86645703D01*
X157828470Y-86640719D01*
X157772537Y-86598847D01*
X157755622Y-86567871D01*
X157706552Y-86436311D01*
X157620388Y-86321211D01*
X157505289Y-86235047D01*
X157370571Y-86184800D01*
X157314332Y-86178754D01*
X157307718Y-86178400D01*
X156663200Y-86178400D01*
X156663200Y-87092898D01*
X156555515Y-87043720D01*
X156448963Y-87028400D01*
X156377437Y-87028400D01*
X156270885Y-87043720D01*
X156163200Y-87092898D01*
X156163200Y-86178400D01*
X155518682Y-86178400D01*
X155512067Y-86178754D01*
X155455828Y-86184800D01*
X155321110Y-86235047D01*
X155206011Y-86321211D01*
X155119847Y-86436310D01*
X155069600Y-86571028D01*
X155063554Y-86627267D01*
X155063200Y-86633881D01*
X155063200Y-87278400D01*
X155979514Y-87278400D01*
X155953707Y-87318556D01*
X155913200Y-87456511D01*
X155913200Y-87600289D01*
X155953707Y-87738244D01*
X155979514Y-87778400D01*
X155063200Y-87778400D01*
X155063200Y-88422918D01*
X155063554Y-88429532D01*
X155069600Y-88485771D01*
X155119847Y-88620489D01*
X155206011Y-88735588D01*
X155321110Y-88821752D01*
X155455828Y-88871999D01*
X155512067Y-88878045D01*
X155518682Y-88878400D01*
X156163200Y-88878400D01*
X156163200Y-87963901D01*
X156270885Y-88013080D01*
X156377437Y-88028400D01*
X156448963Y-88028400D01*
X156555515Y-88013080D01*
X156663200Y-87963901D01*
X156663200Y-88878400D01*
X157307718Y-88878400D01*
X157314332Y-88878045D01*
X157370571Y-88871999D01*
X157505289Y-88821752D01*
X157620388Y-88735588D01*
X157706552Y-88620489D01*
X157755622Y-88488928D01*
X157797494Y-88432995D01*
X157862958Y-88408578D01*
X157931231Y-88423430D01*
X157959485Y-88444581D01*
X158081799Y-88566895D01*
X158275370Y-88702435D01*
X158489537Y-88802303D01*
X158691246Y-88856350D01*
X158717792Y-88863463D01*
X158953199Y-88884059D01*
X158953199Y-88884058D01*
X158953200Y-88884059D01*
X159188608Y-88863463D01*
X159416863Y-88802303D01*
X159631030Y-88702435D01*
X159824601Y-88566895D01*
X159991695Y-88399801D01*
X160121627Y-88214238D01*
X160176201Y-88170616D01*
X160245699Y-88163422D01*
X160308054Y-88194945D01*
X160324772Y-88214238D01*
X160454705Y-88399801D01*
X160621799Y-88566895D01*
X160815370Y-88702435D01*
X161029537Y-88802303D01*
X161231246Y-88856350D01*
X161257792Y-88863463D01*
X161493199Y-88884059D01*
X161493199Y-88884058D01*
X161493200Y-88884059D01*
X161728608Y-88863463D01*
X161956863Y-88802303D01*
X162171030Y-88702435D01*
X162364601Y-88566895D01*
X162531695Y-88399801D01*
X162661626Y-88214239D01*
X162716202Y-88170616D01*
X162785700Y-88163422D01*
X162848055Y-88194945D01*
X162864771Y-88214237D01*
X162994705Y-88399801D01*
X163161799Y-88566895D01*
X163355370Y-88702435D01*
X163569537Y-88802303D01*
X163797792Y-88863463D01*
X164033200Y-88884059D01*
X164268608Y-88863463D01*
X164496863Y-88802303D01*
X164711030Y-88702435D01*
X164904601Y-88566895D01*
X165071695Y-88399801D01*
X165201627Y-88214238D01*
X165256201Y-88170616D01*
X165325699Y-88163422D01*
X165388054Y-88194945D01*
X165404772Y-88214238D01*
X165534705Y-88399801D01*
X165701799Y-88566895D01*
X165895370Y-88702435D01*
X166109537Y-88802303D01*
X166337792Y-88863463D01*
X166573200Y-88884059D01*
X166808608Y-88863463D01*
X167036863Y-88802303D01*
X167251030Y-88702435D01*
X167444601Y-88566895D01*
X167611695Y-88399801D01*
X167741626Y-88214239D01*
X167796202Y-88170616D01*
X167865700Y-88163422D01*
X167928055Y-88194945D01*
X167944771Y-88214237D01*
X168074705Y-88399801D01*
X168241799Y-88566895D01*
X168435370Y-88702435D01*
X168649537Y-88802303D01*
X168877792Y-88863463D01*
X169113200Y-88884059D01*
X169348608Y-88863463D01*
X169576863Y-88802303D01*
X169791030Y-88702435D01*
X169984601Y-88566895D01*
X170151695Y-88399801D01*
X170287235Y-88206230D01*
X170387103Y-87992063D01*
X170448263Y-87763808D01*
X170468859Y-87528400D01*
X170459639Y-87423023D01*
X170448263Y-87292992D01*
X170434595Y-87241981D01*
X170387103Y-87064737D01*
X170287235Y-86850571D01*
X170151695Y-86656999D01*
X169984601Y-86489905D01*
X169791030Y-86354365D01*
X169576863Y-86254497D01*
X169479187Y-86228325D01*
X169348607Y-86193336D01*
X169113200Y-86172740D01*
X168877790Y-86193336D01*
X168856424Y-86199061D01*
X168786574Y-86197396D01*
X168736654Y-86166966D01*
X167954582Y-85384894D01*
X167921097Y-85323571D01*
X167926081Y-85253879D01*
X167958725Y-85205576D01*
X168065563Y-85108180D01*
X168078098Y-85091581D01*
X168188473Y-84945421D01*
X168188473Y-84945419D01*
X168188475Y-84945418D01*
X168244439Y-84833026D01*
X168279382Y-84762850D01*
X168335197Y-84566683D01*
X168354015Y-84363600D01*
X168335197Y-84160517D01*
X168326912Y-84131400D01*
X168279381Y-83964348D01*
X168188475Y-83781781D01*
X168065563Y-83619019D01*
X167914841Y-83481618D01*
X167741438Y-83374252D01*
X167551257Y-83300576D01*
X167472238Y-83285805D01*
X167350776Y-83263100D01*
X167146824Y-83263100D01*
X167046583Y-83281838D01*
X166946342Y-83300576D01*
X166756161Y-83374252D01*
X166582758Y-83481618D01*
X166432036Y-83619019D01*
X166309124Y-83781781D01*
X166218218Y-83964348D01*
X166162402Y-84160516D01*
X166160370Y-84182453D01*
X166134583Y-84247390D01*
X166077783Y-84288077D01*
X166008002Y-84291597D01*
X165947396Y-84256831D01*
X165915206Y-84194818D01*
X165912899Y-84171011D01*
X165912899Y-82733483D01*
X165912899Y-79688431D01*
X165932584Y-79621396D01*
X165985388Y-79575641D01*
X166054546Y-79565697D01*
X166059640Y-79566538D01*
X166166424Y-79586500D01*
X166166426Y-79586500D01*
X166370374Y-79586500D01*
X166370376Y-79586500D01*
X166570856Y-79549024D01*
X166761037Y-79475348D01*
X166934441Y-79367981D01*
X167085164Y-79230579D01*
X167208073Y-79067821D01*
X167208073Y-79067819D01*
X167208075Y-79067818D01*
X167264028Y-78955447D01*
X167298982Y-78885250D01*
X167354797Y-78689083D01*
X167373615Y-78486000D01*
X167354797Y-78282917D01*
X167352729Y-78275650D01*
X167328755Y-78191389D01*
X167298982Y-78086750D01*
X167295928Y-78080617D01*
X167208075Y-77904181D01*
X167085163Y-77741419D01*
X166969362Y-77635853D01*
X166933080Y-77576142D01*
X166928900Y-77544216D01*
X166928900Y-72867350D01*
X166948585Y-72800311D01*
X166965219Y-72779669D01*
X167166069Y-72578819D01*
X167227392Y-72545334D01*
X167253750Y-72542500D01*
X167828035Y-72542500D01*
X167895074Y-72562185D01*
X167926989Y-72591773D01*
X167991636Y-72677380D01*
X168142358Y-72814781D01*
X168315761Y-72922147D01*
X168315763Y-72922148D01*
X168505944Y-72995824D01*
X168706424Y-73033300D01*
X168706426Y-73033300D01*
X168910374Y-73033300D01*
X168910376Y-73033300D01*
X169110856Y-72995824D01*
X169301037Y-72922148D01*
X169474441Y-72814781D01*
X169575013Y-72723098D01*
X169625163Y-72677380D01*
X169628839Y-72672513D01*
X169689810Y-72591773D01*
X169745920Y-72550137D01*
X169788765Y-72542500D01*
X170054123Y-72542500D01*
X170121162Y-72562185D01*
X170151067Y-72589184D01*
X170264492Y-72731414D01*
X170308510Y-72769872D01*
X170346044Y-72828803D01*
X170345758Y-72898672D01*
X170316552Y-72948943D01*
X170190368Y-73080922D01*
X170066365Y-73268779D01*
X169977896Y-73475760D01*
X169927809Y-73695210D01*
X169917709Y-73920076D01*
X169947925Y-74143136D01*
X169983211Y-74251736D01*
X170017483Y-74357212D01*
X170124148Y-74555429D01*
X170228127Y-74685814D01*
X170271142Y-74739753D01*
X170297551Y-74804440D01*
X170284794Y-74873135D01*
X170253416Y-74909951D01*
X170253635Y-74910160D01*
X170249990Y-74913972D01*
X170247085Y-74917381D01*
X170245925Y-74918223D01*
X170245922Y-74918225D01*
X170245922Y-74918226D01*
X170221629Y-74943635D01*
X170090365Y-75080926D01*
X169966365Y-75268779D01*
X169877896Y-75475760D01*
X169827809Y-75695210D01*
X169817709Y-75920076D01*
X169847925Y-76143136D01*
X169913160Y-76343909D01*
X169917483Y-76357212D01*
X170024148Y-76555429D01*
X170156761Y-76721720D01*
X170164492Y-76731414D01*
X170263373Y-76817804D01*
X170300908Y-76876736D01*
X170300623Y-76946605D01*
X170271416Y-76996876D01*
X170190761Y-77081235D01*
X170066806Y-77269019D01*
X169978374Y-77475914D01*
X169946915Y-77613747D01*
X169946916Y-77613748D01*
X170656314Y-77613748D01*
X170644359Y-77625703D01*
X170586835Y-77738600D01*
X170567014Y-77863748D01*
X170586835Y-77988896D01*
X170644359Y-78101793D01*
X170656314Y-78113748D01*
X169944450Y-78113748D01*
X169944448Y-78113749D01*
X169948414Y-78143020D01*
X170017944Y-78357013D01*
X170124569Y-78555155D01*
X170264853Y-78731066D01*
X170434299Y-78879107D01*
X170627451Y-78994510D01*
X170838111Y-79073573D01*
X171059497Y-79113748D01*
X171422000Y-79113748D01*
X171422000Y-78113748D01*
X171287686Y-78113748D01*
X171299641Y-78101793D01*
X171357165Y-77988896D01*
X171376986Y-77863748D01*
X171357165Y-77738600D01*
X171299641Y-77625703D01*
X171287686Y-77613748D01*
X171798000Y-77613748D01*
X171865039Y-77633433D01*
X171910794Y-77686237D01*
X171922000Y-77737748D01*
X171922000Y-79113748D01*
X172225356Y-79113748D01*
X172230894Y-79113499D01*
X172396101Y-79098630D01*
X172612995Y-79038770D01*
X172825771Y-78936304D01*
X172826849Y-78938543D01*
X172877806Y-78920355D01*
X172945862Y-78936172D01*
X172994563Y-78986272D01*
X173008900Y-79044152D01*
X173008900Y-86252747D01*
X172989215Y-86319786D01*
X172972581Y-86340428D01*
X169449228Y-89863781D01*
X169387905Y-89897266D01*
X169361547Y-89900100D01*
X151186453Y-89900100D01*
X151119414Y-89880415D01*
X151098772Y-89863781D01*
X148024002Y-86789011D01*
X148011106Y-86772913D01*
X147959975Y-86724898D01*
X147957178Y-86722187D01*
X147940427Y-86705436D01*
X147937671Y-86702680D01*
X147934490Y-86700212D01*
X147925622Y-86692637D01*
X147893782Y-86662738D01*
X147876224Y-86653085D01*
X147859964Y-86642404D01*
X147844136Y-86630127D01*
X147804051Y-86612780D01*
X147793561Y-86607641D01*
X147755291Y-86586602D01*
X147735891Y-86581621D01*
X147717484Y-86575319D01*
X147699097Y-86567362D01*
X147655958Y-86560529D01*
X147644524Y-86558161D01*
X147602219Y-86547300D01*
X147582184Y-86547300D01*
X147562786Y-86545773D01*
X147555362Y-86544597D01*
X147543005Y-86542640D01*
X147543004Y-86542640D01*
X147509951Y-86545764D01*
X147499525Y-86546750D01*
X147487856Y-86547300D01*
X143922053Y-86547300D01*
X143855014Y-86527615D01*
X143834372Y-86510981D01*
X141835019Y-84511628D01*
X141801534Y-84450305D01*
X141798700Y-84423947D01*
X141798700Y-71761543D01*
X141800964Y-71741039D01*
X141798761Y-71670912D01*
X141798700Y-71667018D01*
X141798700Y-71643341D01*
X141798700Y-71639450D01*
X141798198Y-71635483D01*
X141797281Y-71623827D01*
X141795910Y-71580173D01*
X141790318Y-71560926D01*
X141786374Y-71541885D01*
X141783864Y-71522008D01*
X141767779Y-71481383D01*
X141764008Y-71470368D01*
X141751818Y-71428410D01*
X141741614Y-71411155D01*
X141733061Y-71393695D01*
X141729214Y-71383978D01*
X141725686Y-71375068D01*
X141700008Y-71339725D01*
X141693601Y-71329971D01*
X141671654Y-71292861D01*
X141671370Y-71292380D01*
X141657206Y-71278216D01*
X141644567Y-71263417D01*
X141632795Y-71247213D01*
X141599141Y-71219373D01*
X141590499Y-71211509D01*
X139997602Y-69618611D01*
X139984706Y-69602513D01*
X139933575Y-69554498D01*
X139930778Y-69551787D01*
X139914027Y-69535036D01*
X139911271Y-69532280D01*
X139908090Y-69529812D01*
X139899222Y-69522237D01*
X139867382Y-69492338D01*
X139849824Y-69482685D01*
X139833564Y-69472004D01*
X139817736Y-69459727D01*
X139777651Y-69442380D01*
X139767161Y-69437241D01*
X139728891Y-69416202D01*
X139709491Y-69411221D01*
X139691084Y-69404919D01*
X139672697Y-69396962D01*
X139629558Y-69390129D01*
X139618124Y-69387761D01*
X139575819Y-69376900D01*
X139555784Y-69376900D01*
X139536386Y-69375373D01*
X139528962Y-69374197D01*
X139516605Y-69372240D01*
X139516604Y-69372240D01*
X139483551Y-69375364D01*
X139473125Y-69376350D01*
X139461456Y-69376900D01*
X122636853Y-69376900D01*
X122569814Y-69357215D01*
X122549172Y-69340581D01*
X120439602Y-67231011D01*
X120426706Y-67214913D01*
X120375575Y-67166898D01*
X120372778Y-67164187D01*
X120356027Y-67147436D01*
X120353271Y-67144680D01*
X120350090Y-67142212D01*
X120341222Y-67134637D01*
X120309382Y-67104738D01*
X120291824Y-67095085D01*
X120275564Y-67084404D01*
X120259736Y-67072127D01*
X120219651Y-67054780D01*
X120209161Y-67049641D01*
X120170891Y-67028602D01*
X120151491Y-67023621D01*
X120133084Y-67017319D01*
X120114697Y-67009362D01*
X120071558Y-67002529D01*
X120060124Y-67000161D01*
X120017819Y-66989300D01*
X119997784Y-66989300D01*
X119978386Y-66987773D01*
X119970962Y-66986597D01*
X119958605Y-66984640D01*
X119958604Y-66984640D01*
X119935553Y-66986819D01*
X119915125Y-66988750D01*
X119903456Y-66989300D01*
X119078433Y-66989300D01*
X119011394Y-66969615D01*
X118979479Y-66940027D01*
X118926763Y-66870219D01*
X118776041Y-66732818D01*
X118602638Y-66625452D01*
X118412457Y-66551776D01*
X118321813Y-66534832D01*
X118211976Y-66514300D01*
X118008024Y-66514300D01*
X117907783Y-66533038D01*
X117807542Y-66551776D01*
X117617361Y-66625452D01*
X117443958Y-66732818D01*
X117293236Y-66870219D01*
X117170324Y-67032981D01*
X117079418Y-67215548D01*
X117023602Y-67411716D01*
X117004785Y-67614800D01*
X109153700Y-67614800D01*
X109153700Y-66376426D01*
X109166701Y-66321153D01*
X109170246Y-66314035D01*
X109183782Y-66286850D01*
X109239597Y-66090683D01*
X109258415Y-65887600D01*
X109239597Y-65684517D01*
X109183782Y-65488350D01*
X109168419Y-65457497D01*
X109092875Y-65305781D01*
X108969963Y-65143019D01*
X108888239Y-65068518D01*
X108851957Y-65008807D01*
X108853718Y-64938959D01*
X108892962Y-64881152D01*
X108900641Y-64875316D01*
X108925620Y-64857826D01*
X109023321Y-64760124D01*
X109084640Y-64726641D01*
X109154331Y-64731625D01*
X109198680Y-64760126D01*
X109296380Y-64857826D01*
X109477338Y-64984534D01*
X109677550Y-65077894D01*
X109890932Y-65135070D01*
X110111000Y-65154323D01*
X110331068Y-65135070D01*
X110544450Y-65077894D01*
X110744662Y-64984534D01*
X110925620Y-64857826D01*
X111081826Y-64701620D01*
X111208534Y-64520662D01*
X111273346Y-64381671D01*
X111298042Y-64346401D01*
X111726096Y-63918347D01*
X111726051Y-63918898D01*
X111757266Y-64042162D01*
X111826813Y-64148612D01*
X111927157Y-64226713D01*
X112047422Y-64268000D01*
X112083553Y-64268000D01*
X111412812Y-64938740D01*
X111477593Y-64984101D01*
X111677718Y-65077420D01*
X111891021Y-65134575D01*
X112110999Y-65153821D01*
X112330978Y-65134575D01*
X112544281Y-65077420D01*
X112744408Y-64984100D01*
X112809187Y-64938740D01*
X112138448Y-64268000D01*
X112142569Y-64268000D01*
X112236421Y-64252339D01*
X112348251Y-64191820D01*
X112434371Y-64098269D01*
X112485448Y-63981823D01*
X112491105Y-63913551D01*
X112923955Y-64346401D01*
X112948656Y-64381677D01*
X112984579Y-64458714D01*
X113013466Y-64520662D01*
X113140174Y-64701620D01*
X113296380Y-64857826D01*
X113477338Y-64984534D01*
X113677550Y-65077894D01*
X113890932Y-65135070D01*
X114111000Y-65154323D01*
X114331068Y-65135070D01*
X114544450Y-65077894D01*
X114744662Y-64984534D01*
X114925620Y-64857826D01*
X115023321Y-64760124D01*
X115084640Y-64726641D01*
X115154331Y-64731625D01*
X115198680Y-64760126D01*
X115296380Y-64857826D01*
X115477338Y-64984534D01*
X115677550Y-65077894D01*
X115890932Y-65135070D01*
X116111000Y-65154323D01*
X116331068Y-65135070D01*
X116544450Y-65077894D01*
X116744662Y-64984534D01*
X116925620Y-64857826D01*
X117023321Y-64760124D01*
X117084640Y-64726641D01*
X117154331Y-64731625D01*
X117198680Y-64760126D01*
X117296380Y-64857826D01*
X117477338Y-64984534D01*
X117677550Y-65077894D01*
X117890932Y-65135070D01*
X118111000Y-65154323D01*
X118331068Y-65135070D01*
X118544450Y-65077894D01*
X118744662Y-64984534D01*
X118925620Y-64857826D01*
X119023321Y-64760124D01*
X119084640Y-64726641D01*
X119154331Y-64731625D01*
X119198680Y-64760126D01*
X119296380Y-64857826D01*
X119477338Y-64984534D01*
X119677550Y-65077894D01*
X119890932Y-65135070D01*
X120111000Y-65154323D01*
X120331068Y-65135070D01*
X120544450Y-65077894D01*
X120744662Y-64984534D01*
X120925620Y-64857826D01*
X121023321Y-64760124D01*
X121084640Y-64726641D01*
X121154331Y-64731625D01*
X121198680Y-64760126D01*
X121296380Y-64857826D01*
X121477338Y-64984534D01*
X121677550Y-65077894D01*
X121890932Y-65135070D01*
X122111000Y-65154323D01*
X122331068Y-65135070D01*
X122544450Y-65077894D01*
X122744662Y-64984534D01*
X122925620Y-64857826D01*
X123081826Y-64701620D01*
X123208534Y-64520662D01*
X123301894Y-64320450D01*
X123359070Y-64107068D01*
X123378323Y-63887000D01*
X123359070Y-63666932D01*
X123301894Y-63453550D01*
X123208534Y-63253339D01*
X123081826Y-63072380D01*
X122925620Y-62916174D01*
X122744662Y-62789466D01*
X122673327Y-62756202D01*
X122544451Y-62696106D01*
X122331065Y-62638929D01*
X122111000Y-62619676D01*
X121890934Y-62638929D01*
X121677548Y-62696106D01*
X121477338Y-62789466D01*
X121296382Y-62916172D01*
X121198680Y-63013874D01*
X121137357Y-63047358D01*
X121067665Y-63042374D01*
X121023322Y-63013876D01*
X120925620Y-62916174D01*
X120744662Y-62789466D01*
X120673327Y-62756202D01*
X120544451Y-62696106D01*
X120331065Y-62638929D01*
X120111000Y-62619676D01*
X119890934Y-62638929D01*
X119677548Y-62696106D01*
X119477338Y-62789466D01*
X119296382Y-62916172D01*
X119198680Y-63013874D01*
X119137357Y-63047358D01*
X119067665Y-63042374D01*
X119023322Y-63013876D01*
X118925620Y-62916174D01*
X118744662Y-62789466D01*
X118673327Y-62756202D01*
X118544451Y-62696106D01*
X118331065Y-62638929D01*
X118111000Y-62619676D01*
X117890934Y-62638929D01*
X117677548Y-62696106D01*
X117477338Y-62789466D01*
X117296382Y-62916172D01*
X117198680Y-63013874D01*
X117137357Y-63047358D01*
X117067665Y-63042374D01*
X117023322Y-63013876D01*
X116925620Y-62916174D01*
X116744662Y-62789466D01*
X116673327Y-62756202D01*
X116544451Y-62696106D01*
X116331065Y-62638929D01*
X116111000Y-62619676D01*
X115890934Y-62638929D01*
X115677548Y-62696106D01*
X115477338Y-62789466D01*
X115296382Y-62916172D01*
X115198680Y-63013874D01*
X115137357Y-63047358D01*
X115067665Y-63042374D01*
X115023322Y-63013876D01*
X114925620Y-62916174D01*
X114744662Y-62789466D01*
X114673327Y-62756202D01*
X114544451Y-62696106D01*
X114331065Y-62638929D01*
X114111000Y-62619676D01*
X113890934Y-62638929D01*
X113677548Y-62696106D01*
X113477338Y-62789466D01*
X113296379Y-62916174D01*
X113140174Y-63072379D01*
X113013467Y-63253336D01*
X112948657Y-63392321D01*
X112923956Y-63427596D01*
X112495903Y-63855647D01*
X112495949Y-63855102D01*
X112464734Y-63731838D01*
X112395187Y-63625388D01*
X112294843Y-63547287D01*
X112174578Y-63506000D01*
X112138447Y-63506000D01*
X112809187Y-62835258D01*
X112744406Y-62789898D01*
X112544281Y-62696579D01*
X112330978Y-62639424D01*
X112111000Y-62620178D01*
X111891021Y-62639424D01*
X111677719Y-62696578D01*
X111477589Y-62789900D01*
X111412812Y-62835258D01*
X111412811Y-62835258D01*
X112083554Y-63506000D01*
X112079431Y-63506000D01*
X111985579Y-63521661D01*
X111873749Y-63582180D01*
X111787629Y-63675731D01*
X111736552Y-63792177D01*
X111730894Y-63860448D01*
X111298043Y-63427597D01*
X111273342Y-63392321D01*
X111272992Y-63391571D01*
X111208534Y-63253339D01*
X111191158Y-63228524D01*
X111111000Y-63114045D01*
X111081826Y-63072380D01*
X110925620Y-62916174D01*
X110744662Y-62789466D01*
X110673327Y-62756202D01*
X110544451Y-62696106D01*
X110331065Y-62638929D01*
X110111000Y-62619676D01*
X109890934Y-62638929D01*
X109677548Y-62696106D01*
X109477338Y-62789466D01*
X109296382Y-62916172D01*
X109198680Y-63013874D01*
X109137357Y-63047358D01*
X109067665Y-63042374D01*
X109023322Y-63013876D01*
X108925620Y-62916174D01*
X108744662Y-62789466D01*
X108673327Y-62756202D01*
X108544451Y-62696106D01*
X108331065Y-62638929D01*
X108111000Y-62619676D01*
X107890934Y-62638929D01*
X107677548Y-62696106D01*
X107477338Y-62789466D01*
X107296379Y-62916174D01*
X107140174Y-63072379D01*
X107013466Y-63253338D01*
X106920106Y-63453548D01*
X106862929Y-63666934D01*
X106843676Y-63887000D01*
X106862929Y-64107065D01*
X106920106Y-64320451D01*
X106948658Y-64381680D01*
X107013466Y-64520662D01*
X107140174Y-64701620D01*
X107296380Y-64857826D01*
X107369082Y-64908732D01*
X107412705Y-64963308D01*
X107419898Y-65032807D01*
X107388376Y-65095161D01*
X107381496Y-65101942D01*
X107336437Y-65143019D01*
X107213524Y-65305781D01*
X107122618Y-65488348D01*
X107066802Y-65684516D01*
X107047985Y-65887600D01*
X107066802Y-66090683D01*
X107122617Y-66286850D01*
X107139699Y-66321153D01*
X107152700Y-66376426D01*
X107152700Y-78080617D01*
X107133015Y-78147656D01*
X107116381Y-78168298D01*
X105908933Y-79375745D01*
X105866051Y-79403688D01*
X105831362Y-79417127D01*
X105786572Y-79425500D01*
X105129499Y-79425500D01*
X105062460Y-79405815D01*
X105016705Y-79353011D01*
X105005499Y-79301500D01*
X105005499Y-78181439D01*
X105005499Y-78178128D01*
X104999091Y-78118517D01*
X104948796Y-77983669D01*
X104862546Y-77868454D01*
X104747331Y-77782204D01*
X104612483Y-77731909D01*
X104552873Y-77725500D01*
X104549550Y-77725500D01*
X102460439Y-77725500D01*
X102460420Y-77725500D01*
X102457128Y-77725501D01*
X102453848Y-77725853D01*
X102453840Y-77725854D01*
X102397515Y-77731909D01*
X102262669Y-77782204D01*
X102147454Y-77868454D01*
X102061204Y-77983668D01*
X102010909Y-78118516D01*
X102005810Y-78165946D01*
X102004500Y-78178127D01*
X102004500Y-78181448D01*
X102004500Y-78181449D01*
X102004500Y-82670560D01*
X102004500Y-82670578D01*
X98548115Y-82670578D01*
X98724403Y-82533368D01*
X98892766Y-82350477D01*
X99028733Y-82142365D01*
X99128586Y-81914721D01*
X99189612Y-81673737D01*
X99204788Y-81490587D01*
X99205000Y-81485472D01*
X99205000Y-80676000D01*
X98205000Y-80676000D01*
X98205000Y-80176000D01*
X99205000Y-80176000D01*
X99205000Y-79366527D01*
X99204788Y-79361412D01*
X99189612Y-79178262D01*
X99128586Y-78937278D01*
X99028733Y-78709634D01*
X98892766Y-78501522D01*
X98724403Y-78318631D01*
X98528233Y-78165946D01*
X98309606Y-78047631D01*
X98074493Y-77966916D01*
X97955000Y-77946976D01*
X97955000Y-78992313D01*
X97914844Y-78966507D01*
X97776889Y-78926000D01*
X97633111Y-78926000D01*
X97495156Y-78966507D01*
X97455000Y-78992313D01*
X97455000Y-77946976D01*
X97454999Y-77946976D01*
X97335506Y-77966916D01*
X97100393Y-78047631D01*
X96881766Y-78165946D01*
X96685596Y-78318631D01*
X96517233Y-78501522D01*
X96381266Y-78709634D01*
X96281413Y-78937278D01*
X96220387Y-79178262D01*
X96205211Y-79361412D01*
X96205000Y-79366527D01*
X96205000Y-80176000D01*
X97205000Y-80176000D01*
X97205000Y-80676000D01*
X96205000Y-80676000D01*
X96205000Y-81485472D01*
X94250500Y-81485472D01*
X94250500Y-75413186D01*
X94270185Y-75346147D01*
X94322989Y-75300392D01*
X94374500Y-75289186D01*
X104651586Y-75289186D01*
X104651586Y-71609614D01*
X94374500Y-71609614D01*
X94307461Y-71589929D01*
X94261706Y-71537125D01*
X94250500Y-71485614D01*
X94250500Y-63886999D01*
X98843676Y-63886999D01*
X98862929Y-64107065D01*
X98920106Y-64320451D01*
X98948658Y-64381680D01*
X99013466Y-64520662D01*
X99140174Y-64701620D01*
X99296380Y-64857826D01*
X99477338Y-64984534D01*
X99677550Y-65077894D01*
X99890932Y-65135070D01*
X100111000Y-65154323D01*
X100331068Y-65135070D01*
X100544450Y-65077894D01*
X100744662Y-64984534D01*
X100925620Y-64857826D01*
X101023321Y-64760124D01*
X101084640Y-64726641D01*
X101154331Y-64731625D01*
X101198680Y-64760126D01*
X101296380Y-64857826D01*
X101477338Y-64984534D01*
X101677550Y-65077894D01*
X101890932Y-65135070D01*
X102111000Y-65154323D01*
X102331068Y-65135070D01*
X102544450Y-65077894D01*
X102744662Y-64984534D01*
X102925620Y-64857826D01*
X103081826Y-64701620D01*
X103208534Y-64520662D01*
X103301894Y-64320450D01*
X103359070Y-64107068D01*
X103378323Y-63887000D01*
X103359070Y-63666932D01*
X103301894Y-63453550D01*
X103208534Y-63253339D01*
X103081826Y-63072380D01*
X102925620Y-62916174D01*
X102744662Y-62789466D01*
X102673327Y-62756202D01*
X102544451Y-62696106D01*
X102331065Y-62638929D01*
X102111000Y-62619676D01*
X101890934Y-62638929D01*
X101677548Y-62696106D01*
X101477338Y-62789466D01*
X101296379Y-62916174D01*
X101198681Y-63013873D01*
X101137358Y-63047358D01*
X101067666Y-63042374D01*
X101023319Y-63013873D01*
X100925620Y-62916174D01*
X100744662Y-62789466D01*
X100544451Y-62696106D01*
X100331065Y-62638929D01*
X100111000Y-62619676D01*
X99890934Y-62638929D01*
X99677548Y-62696106D01*
X99477338Y-62789466D01*
X99296379Y-62916174D01*
X99140174Y-63072379D01*
X99013466Y-63253338D01*
X98920106Y-63453548D01*
X98862929Y-63666934D01*
X98843676Y-63886999D01*
X94250500Y-63886999D01*
X94250500Y-60000000D01*
X95644551Y-60000000D01*
X95664317Y-60251149D01*
X95723126Y-60496110D01*
X95740207Y-60537346D01*
X95819534Y-60728859D01*
X95951164Y-60943659D01*
X96114776Y-61135224D01*
X96306341Y-61298836D01*
X96521141Y-61430466D01*
X96753889Y-61526873D01*
X96998852Y-61585683D01*
X97187118Y-61600500D01*
X97189563Y-61600500D01*
X97310437Y-61600500D01*
X97312882Y-61600500D01*
X97501148Y-61585683D01*
X97746111Y-61526873D01*
X97978859Y-61430466D01*
X98193659Y-61298836D01*
X98385224Y-61135224D01*
X98548836Y-60943659D01*
X98680466Y-60728859D01*
X98776873Y-60496111D01*
X98835683Y-60251148D01*
X98855449Y-60000000D01*
X98835683Y-59748852D01*
X98776873Y-59503889D01*
X98680466Y-59271141D01*
X98548836Y-59056341D01*
X98385224Y-58864776D01*
X98193659Y-58701164D01*
X97978859Y-58569534D01*
X97862485Y-58521330D01*
X97746110Y-58473126D01*
X97501149Y-58414317D01*
X97315316Y-58399691D01*
X97315301Y-58399690D01*
X97312882Y-58399500D01*
X97187118Y-58399500D01*
X97184699Y-58399690D01*
X97184683Y-58399691D01*
X96998850Y-58414317D01*
X96753889Y-58473126D01*
X96521139Y-58569535D01*
X96306342Y-58701163D01*
X96114776Y-58864776D01*
X95951163Y-59056342D01*
X95819535Y-59271139D01*
X95723126Y-59503889D01*
X95664317Y-59748850D01*
X95644551Y-60000000D01*
X94250500Y-60000000D01*
X94250500Y-57124500D01*
X94270185Y-57057461D01*
X94322989Y-57011706D01*
X94374500Y-57000500D01*
X194125500Y-57000500D01*
X194192539Y-57020185D01*
G37*
G04 #@! TD.AperFunction*
D26*
X181000400Y-68834000D03*
X184200800Y-88442800D03*
X186740800Y-71323200D03*
X142494000Y-71678800D03*
X126500000Y-82000000D03*
X138836400Y-79248000D03*
X121259600Y-85242400D03*
X138836400Y-76403200D03*
X106273600Y-80426000D03*
X184150000Y-86360000D03*
X108153200Y-65887600D03*
X178206400Y-79552800D03*
X153009600Y-77876400D03*
X153517600Y-73863200D03*
X118110000Y-67614800D03*
X122123200Y-60655200D03*
X161290000Y-70916800D03*
X161290000Y-76657200D03*
X161188400Y-63906400D03*
X158953200Y-84480400D03*
X167248800Y-84363600D03*
X166268400Y-78486000D03*
X168808400Y-71932800D03*
X166268400Y-78486000D03*
X174955200Y-78028800D03*
X140665200Y-88138000D03*
X158902400Y-67868800D03*
X146354800Y-89255600D03*
X120142000Y-59639200D03*
X178358800Y-76555600D03*
X178358800Y-74015600D03*
X178358800Y-71475600D03*
X178358800Y-68935600D03*
X191250000Y-60000000D03*
X97250000Y-60000000D03*
X97250000Y-90000000D03*
X137170800Y-81631400D03*
X134670800Y-84131400D03*
X132170800Y-81631400D03*
X191250000Y-90000000D03*
D27*
X103505000Y-80426000D03*
D28*
X97705000Y-80426000D03*
D29*
X100505000Y-85226000D03*
D26*
X156413200Y-87528400D03*
X158953200Y-87528400D03*
X161493200Y-87528400D03*
X164033200Y-87528400D03*
X166573200Y-87528400D03*
X169113200Y-87528400D03*
X156972000Y-63863748D03*
X156972000Y-65863748D03*
X156972000Y-67863748D03*
X156972000Y-69863748D03*
X156972000Y-71863748D03*
X156972000Y-73863748D03*
X156972000Y-75863748D03*
X156972000Y-77863748D03*
X170972000Y-77863748D03*
X170972000Y-75863748D03*
X170972000Y-73863748D03*
X170972000Y-71863748D03*
X170972000Y-69863748D03*
X170972000Y-67863748D03*
X170972000Y-65863748D03*
X170972000Y-63863748D03*
X100111000Y-63887000D03*
X102111000Y-63887000D03*
X108111000Y-63887000D03*
X110111000Y-63887000D03*
X112111000Y-63887000D03*
X114111000Y-63887000D03*
X116111000Y-63887000D03*
X118111000Y-63887000D03*
X120111000Y-63887000D03*
X122111000Y-63887000D03*
X176111000Y-63887000D03*
X178111000Y-63887000D03*
X180111000Y-63887000D03*
X186111000Y-63887000D03*
X188111000Y-63887000D03*
M02*
